<svg xmlns="http://www.w3.org/2000/svg" width="243" height="55" fill-rule="evenodd" stroke-width=".501" stroke-linejoin="bevel" overflow="visible" viewBox="0 0 182.25 41.25"><g fill="none" stroke="#000" font-family="Times New Roman" font-size="16"><path stroke="none" d="M0 .001V41.25h182.249V.001H0z"/><g stroke-linejoin="miter"><path stroke="#02346c" stroke-width=".86" stroke-miterlimit="79.84031936" d="M1.238 20.525C1.26 9.841 9.899 1.2 20.583 1.181c10.681.019 19.323 8.66 19.342 19.344-.019 10.683-8.661 19.324-19.342 19.343-10.684-.019-19.323-8.66-19.345-19.343z"/><path fill="#02346c" stroke="none" d="M35.072 20.369c.961-1.485-.131-2.446-.655-3.234.218-.655.786-2.315-1.398-3.758.35-1.486-1.444-3.06-3.103-3.802-.045-1.094-3.323-3.934-8.961-3.934-5.64 0-8.829 2.316-8.829 2.316 1.004-.438 4.85-1.53 8.391-1.53 5.42.088 7.344 2.316 7.344 2.316s-3.628-1.092-8.917-.831c-4.72.176-9.879 2.886-9.879 2.886s-.568.479-.436.83c.786-.306 4.239-2.01 9.746-2.71 5.507-.7 9.704 1.137 9.704 1.137s-.567.875-1.093 1.137c-3.016-.745-7.168-.788-11.583-.131-4.415.656-8.698 3.889-8.698 3.889s-.569.611-.131.875c1.18-.701 4.545-2.972 10.009-3.846 5.464-.876 8.392-.219 9.048.217-.656.394-6.034 1.138-10.316 2.1-4.283.96-7.168 2.577-8.48 3.757-1.31 1.18-1.441 3.148-.523 4.502-.089.438-.962 1.968 1.355 3.148-.043.831-1.182 2.404 2.403 4.066.307 2.01 3.759 4.546 9.266 5.244 5.552.743 8.393-1.705 8.393-1.705s-3.19 1.182-7.823.832c-4.284 0-7.868-3.41-7.868-3.41s2.186 1.574 8.786 2.185c6.643.263 10.141-1.923 10.141-1.923l.262-.437c-1.268.437-5.552 1.399-10.229 1.356-4.677-.043-9.267-2.798-9.267-2.798l.087-.569s-.13-.394.308-.263c.435.131 4.151 2.36 10.794 2.229 6.645-.131 10.054-2.272 10.054-2.272s.438-.613.22-.613c-2.754 1.049-6.863 1.968-10.972 1.968-4.109 0-8.7-2.097-8.7-2.097l1.75-.699s3.016 1.267 9.31 1.091c6.294-.174 10.097-3.278 10.097-3.278s.131-.087.088-.35c-2.93 1.443-7.081 2.492-10.185 2.71-3.103.219-6.469-.786-6.469-.786s3.235-.436 8.48-1.531c5.595-.83 8.479-4.284 8.479-4.284m-2.622-5.768c.983.304.569 1.421.569 1.421s-1.356-.723-1.182-.723c.175-.216.613-.698.613-.698m-3.41-2.884c.263-.046.699-.919.699-.919.875.568 1.181 1.006 1.269 1.486-.306-.174-2.231-.524-1.968-.567m-1.092.873s2.273.656 2.709.961c-.173.613-1.05 1.05-1.05 1.05s-2.008-.832-3.188-.962c1.004-.437 1.529-1.049 1.529-1.049M7.653 20.996l-.409-.056s-.379-.73.175-1.312c.553-.583 2.125-2.185 7.576-3.468 5.45-1.283 9.442-1.807 12.444-.904.232.145-.117.204-.117.204s-7.49 1.544-9.821 1.952c-2.331.409-8.277 1.719-9.848 3.584m.734 3.789c-.502-.153-.633-1.312-.633-1.312.37.371 1.07.701 1.07.701s-.239.153-.437.611m4.685-4.517c2.301-.757 10.491-2.068 12.325-2.506 1.75-.378 4.868-1.486 4.868-1.486s1.777.728 1.719.845c-.059.118-1.515.875-3.643 1.546-2.127.669-11.451 2.417-13.49 2.796-2.041.381-4.664 1.749-4.664 1.749l-1.254-.932c.73-.991 4.139-2.012 4.139-2.012m-3.089 8.035l-.765-1.05-.022-.347c.066.371 1.223.611 1.223.611l-.436.786m1.442-1.683s-1.31-.568-1.464-.983c.262-.327.613-.591.613-.591.807.57 1.529.744 2.185.897-.371.153-1.334.677-1.334.677m3.279-1.397l-2.186-1.049c.35-.117 2.594-.962 4.868-1.37 4.983-.76 9.158-1.54 11.481-2.273 2.767-.874 4.4-2.215 4.4-2.215s.03.175.057 1.457c-2.505 2.798-12.122 4.139-14.015 4.487-1.895.35-4.605.963-4.605.963zm38.087-12.845v16.369h3.952V16.349h3.747v-3.971h-7.699zm15.279 0l3.301 16.369h-4.035l-.449-2.809H64.24l-.45 2.809h-3.787l3.26-16.369h4.807m-2.445 5.286l-.815 4.774h1.59l-.775-4.774zm87.231-5.286l3.302 16.369h-4.035l-.448-2.809h-2.648l-.448 2.809h-3.788l3.258-16.369h4.807m-2.444 5.286l-.815 4.774h1.59l-.775-4.774zm-77.453-5.281v3.664s1.182-.564 2.121-.564c.935 0 1.505.493 1.505 1.4 0 .905-.611 1.852-1.67 1.852h-1.671v3.457h1.629c.49 0 1.793.412 1.793 1.645 0 1.236-1.669 1.974-4.154 1.072v3.415s1.263.781 3.828.781c2.566 0 4.318-1.78 4.524-3.91.201-2.096-.041-3.95-2.528-4.941C80.7 18.9 80.66 17.5 80.66 15.894c0-1.604-1.468-3.828-4.075-3.828-2.608 0-3.626.317-3.626.317zm9.657-.005v16.369h3.828V16.265h2.486v12.482h3.87V12.378H82.616zm17.925 0c1.875 0 4.443.842 4.443 5.572 0 4.734-3.548 5.205-4.197 5.271-.693.068-1.998.04-1.998.04v5.486h-3.828V12.378h5.58m-1.752 3.764v3.498s.737.024 1.223-.014c.529-.038 1.141-.491 1.141-1.768 0-1.277-.448-1.716-1.262-1.716h-1.102zm19.592 4.34c0 4.718-2.808 8.54-6.267 8.54-3.461 0-6.267-3.822-6.267-8.54 0-4.714 2.806-8.538 6.267-8.538 3.459 0 6.267 3.824 6.267 8.538m-6.267-4.422c-1.193 0-2.16 2.035-2.16 4.546 0 2.513.967 4.55 2.16 4.55 1.192 0 2.159-2.037 2.159-4.55 0-2.511-.967-4.546-2.159-4.546zm7.699-3.682v16.369h3.913v-9.89l2.118 2.593 2.485-2.799v10.096h3.79V12.378h-3.504l-2.771 3.642-2.813-3.642h-3.218zm37.893 0v16.369h3.808v-6.389h2.364v6.389h3.972V12.378h-3.972v5.824h-2.364v-5.824h-3.808zm12.425 0v16.369h3.913v-6.802h.571l2.321 6.802h4.564l-3.544-8.654 2.893-7.715h-4.115l-2.119 5.945h-.571v-5.945h-3.913zm-26.931 0v3.724h-5.133v2.303h.815c1.101 0 5.254.413 5.254 5.103 0 4.691-4.031 5.239-4.806 5.239h-4.889V12.378h8.759m-5.133 9.441v3.735s.789.026 1.277-.014c.529-.044 1.14-.527 1.14-1.889s-.447-1.832-1.262-1.832h-1.155z"/></g></g></svg>