<?xml version="1.0" encoding="UTF-8"?>
<svg fill="none" version="1.1" viewBox="0 0 40 30" xmlns="http://www.w3.org/2000/svg">
<g transform="matrix(.64267 0 0 .64267 -88.201 -9.6401)" fill="#fff">
<path d="m166 23.32c-0.815-2.9758-2.134-5.7899-3.9-8.32-1.535 2.2541-2.74 4.7155-3.58 7.31-1.013 3.4157-1.316 7.0028-0.89 10.54 0.327 2.3194 0.939 4.5898 1.82 6.76 0.711 1.6504 1.603 3.2167 2.66 4.67 2.323-3.2621 3.829-7.0346 4.39-11 0.522-3.3189 0.352-6.71-0.5-9.96zm-3.9 19.85c-0.864-1.6414-1.323-3.4653-1.34-5.32 7e-3 -1.8318 0.471-3.633 1.35-5.24 0.803 1.5481 1.247 3.2569 1.3 5 0.05 1.9321-0.401 3.8442-1.31 5.55zm3.57-12.56c-0.026 1.4792-0.194 2.9526-0.5 4.4 0.066-2.1006-0.116-4.2016-0.54-6.26-0.545-2.355-1.407-4.6256-2.56-6.75-1.136 2.1247-1.983 4.3913-2.52 6.74-0.411 2.091-0.602 4.2192-0.57 6.35-0.349-2.0269-0.49-4.0844-0.42-6.14 0.101-1.8783 0.409-3.7397 0.92-5.55 0.631-2.1338 1.5-4.19 2.59-6.13 1.125 1.8832 2.011 3.8986 2.64 6 0.662 2.3825 0.978 4.8476 0.94 7.32"/>
<path d="m163.75 45.47h-7.55v5.07c0.637-0.6481 1.455-1.0899 2.346-1.2682 0.892-0.1783 1.816-0.0848 2.654 0.2682 1.105 0.4712 1.983 1.3533 2.45 2.46 0.23 0.5514 0.349 1.1427 0.35 1.74-1e-3 0.6007-0.12 1.1952-0.35 1.75-0.231 0.5526-0.571 1.0526-1 1.47-1.589 1.6575-3.746 2.6529-6.038 2.7867-2.293 0.1339-4.551-0.6038-6.322-2.065s-2.924-3.538-3.229-5.8139c-0.304-2.2759 0.264-4.5827 1.589-6.4578 0.326-0.4872 0.701-0.9396 1.12-1.35 0.841-0.8554 1.844-1.5352 2.95-2 1.105-0.4519 2.286-0.6862 3.48-0.69v-12.08c-4.055 0.0024-7.962 1.5246-10.95 4.2663s-4.84 6.5037-5.19 10.544c-0.23 2.6759 0.211 5.3669 1.281 7.8302s2.736 4.6215 4.849 6.2798c2.111 1.6608 4.601 2.7706 7.248 3.2297 2.646 0.4591 5.365 0.253 7.912-0.5997 2.537-0.8594 4.821-2.3332 6.65-4.29v-11.08z"/>
<path d="m169.9 45.48h5.1c2.26 0 2.4 1.76 2.4 2.9v4.9c0 1.14-0.14 2.89-2.4 2.89h-1.85v5.51h-3.25zm3.65 8.91c0.35 0 0.6-0.31 0.6-0.81v-5.51c0-0.5-0.25-0.8-0.6-0.8h-0.42v7.12z"/>
<path d="m180.37 45.48h5.24l1.74 16.2h-3.27l-0.32-4.3h-1.57l-0.32 4.3h-3.24zm3.28 10.12-0.57-8.14h-0.19l-0.57 8.14z"/>
<path d="m190.65 57.3-2.65-11.82h3.58l0.71 6.16h0.14l0.73-6.15h3.56l-2.72 11.82v4.37h-3.37z"/>
</g>
</svg>
