<svg width="130" height="46" viewBox="0 0 130 46" fill="none" xmlns="http://www.w3.org/2000/svg">
<path d="M100.136 45.7668H98.397V30.1024H102.747C105.599 30.1024 107.469 31.4294 107.469 34.5165C107.469 38.1771 105.248 39.1289 102.421 39.1289H100.136V45.7668ZM100.136 37.564H101.835C104.227 37.564 105.663 37.1949 105.663 34.5135C105.663 32.2957 104.422 31.6643 102.335 31.6643H100.136V37.564Z" fill="#0079C2"/>
<path d="M111.993 30.1024H114.299L118.695 45.7668H116.779L115.541 41.252H110.602L109.449 45.7546H107.533L111.993 30.1024ZM113.125 31.3623H113.082L111.014 39.6963H115.147L113.125 31.3623Z" fill="#0079C2"/>
<path d="M119.76 30.0994L123.417 37.9544L127.093 30.0994H129.009L124.287 39.6963V45.7668H122.545V39.6963L117.847 30.0994H119.76Z" fill="#0079C2"/>
<path d="M25.3221 8.26993C24.349 4.03583 21.9178 0.564344 21.5822 0C21.0545 0.793133 19.1113 3.84364 18.126 7.23276C17.1399 10.6128 16.8463 14.1571 17.2627 17.6533C17.6318 20.9509 19.0259 24.337 19.0259 24.337C19.7068 25.9698 20.5705 27.5202 21.6005 28.9585C22.656 27.5827 25.0903 23.4676 25.8499 18.1109C26.2739 15.1305 26.2922 12.5223 25.3221 8.26993ZM21.5822 27.9C20.7461 26.2734 20.3051 24.4728 20.2949 22.6439C20.2961 20.8341 20.7447 19.0527 21.6005 17.4581C22.3754 19.0043 22.8023 20.7015 22.8512 22.4304C22.9013 24.3388 22.4646 26.2285 21.5822 27.9213V27.9ZM25.0385 15.5057C25.0176 16.9695 24.8583 18.4281 24.5626 19.8619C24.6252 17.7853 24.4482 15.7084 24.0348 13.6724C23.6291 11.7323 22.4821 8.48652 21.5639 6.98567C20.7189 8.41636 19.6757 11.2198 19.1235 13.6541C18.5714 16.0884 18.5653 19.0108 18.5653 19.8985C18.2324 17.8941 18.0965 15.8619 18.1595 13.831C18.2624 11.9749 18.5589 10.1346 19.0442 8.3401C20.118 4.86556 21.3351 2.64479 21.5639 2.29093C22.6516 4.1687 23.5109 6.1698 24.1233 8.25163C24.761 10.6139 25.069 13.053 25.0385 15.4996" fill="#0079C2"/>
<path d="M23.2295 29.9469H15.8503V34.9009L15.8686 34.8796C16.2799 34.4555 16.7714 34.1175 17.3145 33.8852C17.8576 33.6529 18.4415 33.5309 19.0323 33.5264C19.623 33.522 20.2087 33.6351 20.7552 33.8591C21.3018 34.0832 21.7984 34.4137 22.216 34.8316C22.6336 35.2494 22.9639 35.7461 23.1877 36.2928C23.4115 36.8395 23.5243 37.4252 23.5195 38.0159C23.5148 38.6066 23.3926 39.1905 23.16 39.7335C22.9274 40.2765 22.5892 40.7678 22.1649 41.1789L22.1435 41.2002L22.1161 41.2246C21.079 42.2546 19.8041 43.0132 18.4041 43.4332C17.0041 43.8532 15.5221 43.9218 14.0893 43.6329C12.6565 43.3439 11.317 42.7064 10.1892 41.7765C9.06144 40.8467 8.18016 39.6533 7.62333 38.3019C7.06649 36.9505 6.85125 35.4827 6.99665 34.0283C7.14205 32.5739 7.6436 31.1777 8.45695 29.9633C9.2703 28.7488 10.3704 27.7535 11.6599 27.0653C12.9494 26.3772 14.3887 26.0174 15.8503 26.0178V14.1025C13.2226 14.101 10.6357 14.7533 8.32276 16.0004C6.00982 17.2476 4.04346 19.0506 2.60081 21.2469C1.15816 23.4433 0.284543 25.964 0.0586464 28.582C-0.16725 31.2001 0.261673 33.8332 1.30678 36.2442C2.35188 38.6552 3.98034 40.7683 6.04546 42.3933C8.11058 44.0182 10.5475 45.1039 13.1367 45.5526C15.7259 46.0012 18.386 45.7987 20.8774 44.9633C23.3689 44.1279 25.6133 42.6859 27.4087 40.7671V29.9469H23.2295Z" fill="#0079C2"/>
<path d="M36.7615 42.9634C36.7615 44.0708 36.6273 45.7913 34.4096 45.7913H31.7831C29.5654 45.7913 29.4312 44.0708 29.4312 42.9634V32.7808C29.4312 31.6704 29.5654 29.95 31.7831 29.95H34.4096C36.6273 29.95 36.7615 31.6704 36.7615 32.7808V35.0199H33.5951V32.4392C33.5967 32.372 33.585 32.3052 33.5607 32.2426C33.5364 32.1799 33.5 32.1227 33.4535 32.0743C33.407 32.0258 33.3514 31.987 33.2898 31.9601C33.2282 31.9332 33.162 31.9187 33.0948 31.9175C33.027 31.9161 32.9597 31.9288 32.8971 31.9548C32.8345 31.9809 32.778 32.0197 32.7312 32.0687C32.6844 32.1178 32.6484 32.1761 32.6254 32.2399C32.6024 32.3037 32.5929 32.3715 32.5976 32.4392V43.238C32.5929 43.3056 32.6024 43.3735 32.6254 43.4373C32.6484 43.501 32.6844 43.5593 32.7312 43.6084C32.778 43.6575 32.8345 43.6963 32.8971 43.7223C32.9597 43.7483 33.027 43.7611 33.0948 43.7596C33.162 43.7584 33.2282 43.744 33.2898 43.7171C33.3514 43.6902 33.407 43.6514 33.4535 43.6029C33.5 43.5544 33.5364 43.4972 33.5607 43.4346C33.585 43.372 33.5967 43.3051 33.5951 43.238V39.7726H33.1192V38.0308H36.7615V42.9634Z" fill="#0079C2"/>
<path d="M41.5354 39.8397L42.0754 31.9236H42.2584L42.8014 39.855L41.5354 39.8397ZM38.0273 45.7913H41.1267L41.4317 41.5816H42.9265L43.2315 45.7913H46.3339L44.6561 29.9652H39.6777L38.0273 45.7913Z" fill="#0079C2"/>
<path d="M47.4868 43.7993L50.519 31.9236H47.8041V29.95H53.777V31.9206L50.7448 43.7596H53.957V45.7913H47.4868V43.7993Z" fill="#0079C2"/>
<path d="M58.6211 38.4304V31.9145H59.0299C59.3685 31.9145 59.6156 32.2195 59.6156 32.7076V37.6372C59.6156 38.1345 59.3685 38.4304 59.0299 38.4304H58.6211ZM55.4517 45.7913H58.6211V40.4041H60.4301C62.6509 40.4041 62.7851 38.6866 62.7851 37.5762V32.7808C62.7851 31.6704 62.6509 29.95 60.4301 29.95H55.4517V45.7913Z" fill="#0079C2"/>
<path d="M67.5835 37.9545V31.9175H67.9893C68.3309 31.9175 68.578 32.2226 68.578 32.7076V37.1644C68.578 37.6616 68.3309 37.9545 67.9893 37.9545H67.5835ZM72.1593 45.7913L70.5974 39.614C71.7292 39.1625 71.7536 38.1192 71.7536 37.6891V32.7808C71.7536 31.6704 71.6163 29.95 69.3986 29.95H64.4141V45.7913H67.5835V39.9312H67.8001L68.8861 45.7913H72.1593Z" fill="#0079C2"/>
<path d="M78.0258 43.238C78.0274 43.3049 78.0158 43.3715 77.9917 43.4339C77.9676 43.4963 77.9314 43.5534 77.8852 43.6018C77.8391 43.6503 77.7838 43.6891 77.7226 43.7162C77.6614 43.7433 77.5954 43.758 77.5285 43.7596C77.4606 43.7615 77.3931 43.7491 77.3302 43.7233C77.2674 43.6974 77.2107 43.6586 77.1639 43.6094C77.117 43.5603 77.081 43.5018 77.0581 43.4378C77.0353 43.3738 77.0262 43.3057 77.0313 43.238V32.4392C77.0262 32.3714 77.0353 32.3034 77.0581 32.2394C77.081 32.1754 77.117 32.1169 77.1639 32.0677C77.2107 32.0185 77.2674 31.9798 77.3302 31.9539C77.3931 31.928 77.4606 31.9156 77.5285 31.9175C77.5954 31.9191 77.6614 31.9339 77.7226 31.9609C77.7838 31.988 77.8391 32.0269 77.8852 32.0753C77.9314 32.1238 77.9676 32.1808 77.9917 32.2433C78.0158 32.3057 78.0274 32.3723 78.0258 32.4392V43.238ZM73.8618 42.9634C73.8618 44.0708 73.9991 45.7913 76.2168 45.7913H78.8403C81.058 45.7913 81.1922 44.0708 81.1922 42.9634V32.7808C81.1922 31.6704 81.058 29.95 78.8403 29.95H76.2168C73.9991 29.95 73.8618 31.6704 73.8618 32.7808V42.9634Z" fill="#0079C2"/>
<path d="M91.1368 29.95H95.255V45.7913H92.0885V35.8557H91.9757L90.3436 45.7913H87.8117L86.1827 35.8557H86.0668V45.7913H82.9004V29.95H87.0186L89.0777 41.0843L91.1368 29.95Z" fill="#0079C2"/>
</svg>
