<svg width="128" height="20" viewBox="0 0 128 20" fill="none" xmlns="http://www.w3.org/2000/svg">
<mask id="mask0_2810_37583" style="mask-type:alpha" maskUnits="userSpaceOnUse" x="0" y="0" width="128" height="20">
<path d="M9.80005 0.144531H118.5C123.7 0.144531 128 4.44453 128 9.64453C128 14.8445 123.7 19.1445 118.5 19.1445H9.80005C4.60005 19.1445 0.300049 14.8445 0.300049 9.64453C0.300049 4.44453 4.50005 0.144531 9.80005 0.144531Z" fill="white"/>
</mask>
<g mask="url(#mask0_2810_37583)">
<path d="M145.4 -65.2554C145.4 -67.4554 143.6 -69.2554 141.4 -69.2554H-49.1C-51.3 -69.2554 -53.1 -67.4554 -53.1 -65.2554V47.5446C-53.1 49.7446 -51.3 51.5446 -49.1 51.5446H141.4C143.6 51.5446 145.4 49.7446 145.4 47.5446V-65.2554Z" fill="url(#paint0_linear_2810_37583)"/>
<path d="M38.2 21.1443C52.3 21.1443 63.8 10.1443 63.8 -3.45566C63.8 -17.0557 52.3 -28.0557 38.2 -28.0557C24.1 -28.0557 12.6 -17.0557 12.6 -3.45566C12.6 10.1443 24 21.1443 38.2 21.1443Z" fill="url(#paint1_linear_2810_37583)"/>
<path d="M16.3 24.2445C11.7 24.2445 7.40003 21.4445 5.70003 17.1445C3.90003 12.8445 4.90004 7.84453 8.10004 4.54453C9.40004 3.24453 8.40003 1.14453 6.70003 1.14453H-12.6C-14.8 1.14453 -16.6 2.94453 -16.6 5.14453V75.2445C-16.6 78.8445 -12.3 80.6445 -9.69997 78.0445L24.4 43.8445C27.7 40.5445 28.6 35.6445 26.8 31.2445C25.1 27.0445 21 24.2445 16.3 24.2445Z" fill="url(#paint2_linear_2810_37583)"/>
<path d="M-9.89995 47.9443C-8.79995 47.9443 -7.89995 47.5443 -7.19995 46.7443C5.50005 34.5443 20.2001 20.0443 32.1001 8.54435C35.8001 4.94435 36.9 -0.455653 34.8 -5.05565C32.8 -9.65565 28.2 -12.7557 22.9 -12.7557C20.6 -12.7557 18.1 -12.7557 15.9 -12.7557C11.9 -12.7557 8.20004 -15.0557 6.70004 -18.7557C5.10004 -22.3557 6.00005 -26.5557 8.80005 -29.3557C12.5 -32.9557 15.4 -37.9557 17.7 -42.7557C18.9 -45.2557 17.0001 -48.0557 14.1001 -48.0557C1.00005 -48.0557 -30.9 -48.1557 -38.5 -48.0557C-39.6 -48.0557 -40.2 -47.4557 -40.2 -46.3557V43.8443C-40.2 46.0443 -38.4 47.8443 -36.2 47.8443H-9.89995V47.9443Z" fill="url(#paint3_linear_2810_37583)"/>
<path d="M-50.2 101.844C-52.7 104.244 -57 102.344 -57 98.8444V-113.056C-57 -114.256 -56.4 -114.856 -55.2 -114.956C-45.8 -115.056 -2.1 -114.956 13.7 -114.956C16.4 -114.956 18.3 -112.256 17.2 -109.656C14.3 -103.356 10.3 -96.8556 5.39999 -92.1556C1.79999 -88.7556 0.599997 -83.7556 2.7 -79.2556C4.7 -74.8556 9.19999 -71.9556 14.4 -71.9556C17.4 -71.9556 20.3 -71.9556 23.4 -71.9556C30 -71.9556 36 -68.2556 38.5 -62.5556C41 -56.8556 39.7 -50.3556 34.9 -45.8556C16.7 -28.9556 -6.69999 -7.15556 -24.4 9.34444C-28.7 13.3444 -30 19.4444 -27.7 24.7444C-25.4 30.0444 -19.8 33.5444 -13.7 33.5444C-7.6 33.5444 -2.1 37.0444 0.300003 42.3444C2.6 47.6444 1.4 53.7444 -3 57.7444L-50.2 101.844Z" fill="url(#paint4_linear_2810_37583)"/>
<path d="M102.7 16.3446C132.3 16.3446 156.1 -6.65537 156.1 -34.9554C156.1 -63.3554 132.1 -86.2554 102.7 -86.2554C73.1001 -86.2554 49.3 -63.2554 49.3 -34.9554C49.3 -6.65537 73.2001 16.3446 102.7 16.3446Z" fill="url(#paint5_linear_2810_37583)"/>
<path d="M172.8 -109.655C175.3 -112.055 179.6 -110.255 179.6 -106.855V60.3447C179.6 62.8447 175.8 66.1447 173.2 66.1447H86.5999C83.8999 66.1447 81.7999 63.4447 83.0999 60.8447C84.5999 57.8447 86.4999 55.0447 88.6999 52.9447C90.6999 51.0447 91.2999 48.0447 90.2999 45.5447C89.1999 43.0447 86.5999 41.3447 83.7999 41.3447C82.1999 41.3447 80.4999 41.3447 78.7999 41.3447C75.0999 41.3447 71.7999 39.2447 70.3999 35.9447C68.9999 32.6447 69.7999 28.8447 72.3999 26.3447C82.4999 16.6447 95.4999 4.04467 105.4 -5.45533C107.8 -7.75533 108.6 -11.2553 107.2 -14.3553C105.9 -17.4553 102.9 -19.4553 99.3999 -19.4553C95.9999 -19.4553 92.8999 -21.4553 91.5999 -24.5553C90.2999 -27.6553 91.0999 -31.0553 93.3999 -33.4553L172.8 -109.655Z" fill="url(#paint6_linear_2810_37583)"/>
<path d="M140 21.1443C154.1 21.1443 165.7 10.1443 165.7 -3.45566C165.7 -17.0557 154.2 -28.0557 140 -28.0557C125.9 -28.0557 114.4 -17.0557 114.4 -3.45566C114.4 10.1443 125.9 21.1443 140 21.1443Z" fill="url(#paint7_linear_2810_37583)"/>
<path d="M12 10.0443V9.14434H9.79997V6.74434H8.79997V9.14434H6.59998V10.0443H8.79997V12.5443H9.79997V10.0443H12ZM19.9 13.8443C22.3 13.8443 24.1 12.1443 24.1 9.64434C24.1 7.14434 22.3 5.44434 19.9 5.44434C17.5 5.44434 15.8 7.14434 15.8 9.64434C15.8 12.1443 17.5 13.8443 19.9 13.8443ZM19.9 12.4443C18.5 12.4443 17.5 11.2443 17.5 9.84434C17.5 8.24434 18.4 7.24434 19.9 7.24434C21.4 7.24434 22.3 8.44434 22.3 9.84434C22.3 11.2443 21.3 12.4443 19.9 12.4443ZM29.6 7.84434H25.1V13.7443H26.6V9.14434H29.5V7.84434H29.6ZM32.1 13.7443V11.3443H34.5V13.7443H36V7.84434H34.3V10.0443H32V7.84434H30.6V13.7443H32.1V13.7443ZM40.2 13.8443C41.1 13.8443 42 13.5443 42.6 13.0443L42 11.9443C41.6 12.3443 41 12.4443 40.5 12.4443C39.5 12.4443 39 11.7443 38.8 11.1443H43V10.7443C43 8.74434 41.9 7.44434 40.1 7.44434C38.3 7.44434 37.2 8.94434 37.2 10.6443C37.1 12.6443 38.4 13.8443 40.2 13.8443ZM41.4 10.1443H38.6C38.7 9.64434 39.1 8.84434 40 8.84434C41 8.84434 41.4 9.64434 41.4 10.1443ZM85.6 13.8443C86.5 13.8443 87.4 13.5443 88 13.0443L87.4 11.9443C87 12.3443 86.4 12.4443 85.9 12.4443C84.9 12.4443 84.4 11.7443 84.2 11.1443H88.4V10.7443C88.4 8.74434 87.3 7.44434 85.5 7.44434C83.7 7.44434 82.6 8.94434 82.6 10.6443C82.6 12.6443 83.8 13.8443 85.6 13.8443ZM86.9 10.1443H84.1C84.2 9.64434 84.6 8.84434 85.5 8.84434C86.5 8.84434 86.9 9.64434 86.9 10.1443ZM45.5 13.7443V11.3443H47.9V13.7443H49.4V7.84434H47.9V10.0443H45.5V7.84434H44V13.7443H45.5V13.7443ZM52.4 13.7443V11.3443H54.8V13.7443H56.3V7.84434H54.8V10.0443H52.4V7.84434H50.9V13.7443H52.4V13.7443ZM57.8 7.84434V13.7443H61.2C62.5 13.7443 63.2 12.8443 63.2 11.7443C63.2 10.6443 62.6 9.74434 61.2 9.74434H59.3V7.74434H57.8V7.84434ZM65.5 13.7443V7.84434H64V13.7443H65.5V13.7443ZM61.1 11.2443C61.5 11.2443 61.7 11.5443 61.7 11.9443C61.7 12.3443 61.4 12.6443 61.1 12.6443H59.3V11.3443H61.1V11.2443ZM71.8 6.04434L71.2 5.54434C70.8 6.04434 70.4 6.34434 69.8 6.34434C69.2 6.34434 68.7 6.04434 68.4 5.54434L67.8 6.04434C68.3 6.74434 69.1 7.14434 69.8 7.14434C70.6 7.24434 71.4 6.84434 71.8 6.04434ZM68.5 13.7443L70.9 10.0443V13.7443H72.4V7.84434H70.9L68.5 11.4443V7.84434H67V13.7443H68.5V13.7443ZM82.6 13.7443L80.3 10.4443L82.6 7.84434H80.7L78.5 10.4443V7.84434H77V13.7443H78.5V12.1443L79.1 11.3443L80.6 13.5443H82.5V13.7443H82.6ZM96 7.84434V12.4443H94.1V7.84434H92.6V12.4443H90.7V7.84434H89.3V13.7443H97.6V7.84434H96ZM101.8 13.8443C103.7 13.8443 104.9 12.3443 104.9 10.6443C104.9 9.04434 103.9 7.64434 102.2 7.64434C101.4 7.64434 100.7 8.04434 100.3 8.54434C100.4 7.84434 101.1 7.24434 102.3 7.04434C103.2 6.94434 104.7 6.64434 104.7 5.44434H103.2C103.2 5.74434 102.8 5.84434 101.9 5.94434C100 6.24434 99 7.54434 99 10.4443C98.7 12.4443 99.8 13.8443 101.8 13.8443ZM101.8 12.5443C100.9 12.5443 100.4 11.7443 100.4 10.8443C100.4 9.94434 100.9 9.14434 101.8 9.14434C102.7 9.14434 103.3 9.94434 103.3 10.8443C103.2 11.7443 102.6 12.5443 101.8 12.5443ZM107.8 13.8443C109.6 13.8443 110.9 12.5443 110.9 10.6443C110.9 8.84434 109.6 7.44434 107.8 7.44434C106.7 7.44434 105.9 7.94434 105.5 8.54434L106.4 9.44434C106.7 9.04434 107.2 8.74434 107.7 8.74434C108.5 8.74434 109 9.14434 109.2 10.0443H106.9V11.2443H109.2C109.1 12.0443 108.4 12.5443 107.7 12.5443C107.2 12.5443 106.7 12.2443 106.4 11.8443L105.5 12.7443C105.8 13.3443 106.5 13.8443 107.8 13.8443ZM117.4 13.7443L115.1 10.4443L117.4 7.84434H115.5L113.3 10.4443V7.84434H111.8V13.7443H113.3V12.1443L113.9 11.3443L115.4 13.5443H117.3V13.7443H117.4Z" fill="white"/>
</g>
<defs>
<linearGradient id="paint0_linear_2810_37583" x1="-53.133" y1="-8.88047" x2="145.417" y2="-8.88047" gradientUnits="userSpaceOnUse">
<stop stop-color="#E52513"/>
<stop offset="1" stop-color="#F28C00"/>
</linearGradient>
<linearGradient id="paint1_linear_2810_37583" x1="30.8235" y1="18.6769" x2="50.6595" y2="-41.0363" gradientUnits="userSpaceOnUse">
<stop stop-color="#E52513"/>
<stop offset="0.5392" stop-color="#EC5F08"/>
<stop offset="1" stop-color="#F28C00"/>
</linearGradient>
<linearGradient id="paint2_linear_2810_37583" x1="21.7034" y1="14.5955" x2="-14.9846" y2="42.1388" gradientUnits="userSpaceOnUse">
<stop stop-color="#FFCD00"/>
<stop offset="0.0449641" stop-color="#FDBF0C"/>
<stop offset="0.1972" stop-color="#F69531"/>
<stop offset="0.3524" stop-color="#F1724F"/>
<stop offset="0.5091" stop-color="#EC5767"/>
<stop offset="0.6678" stop-color="#E94478"/>
<stop offset="0.8298" stop-color="#E83882"/>
<stop offset="1" stop-color="#E73585"/>
</linearGradient>
<linearGradient id="paint3_linear_2810_37583" x1="50.3246" y1="35.2447" x2="-4.42035" y2="3.71215" gradientUnits="userSpaceOnUse">
<stop stop-color="#FFCD00"/>
<stop offset="1" stop-color="#E9510E"/>
</linearGradient>
<linearGradient id="paint4_linear_2810_37583" x1="27.72" y1="-6.03586" x2="-119.069" y2="-6.03586" gradientUnits="userSpaceOnUse">
<stop stop-color="#E52513"/>
<stop offset="1" stop-color="#E73585"/>
</linearGradient>
<linearGradient id="paint5_linear_2810_37583" x1="75.3318" y1="12.8023" x2="128.408" y2="-80.024" gradientUnits="userSpaceOnUse">
<stop offset="0.0145447" stop-color="#E52513"/>
<stop offset="0.1757" stop-color="#E62D11"/>
<stop offset="0.4315" stop-color="#E9440D"/>
<stop offset="0.748" stop-color="#ED6906"/>
<stop offset="1" stop-color="#F28C00"/>
</linearGradient>
<linearGradient id="paint6_linear_2810_37583" x1="178.781" y1="63.5882" x2="102.612" y2="-73.4632" gradientUnits="userSpaceOnUse">
<stop stop-color="#E73585"/>
<stop offset="1" stop-color="#E52513"/>
</linearGradient>
<linearGradient id="paint7_linear_2810_37583" x1="156.671" y1="-25.8124" x2="125.166" y2="16.5416" gradientUnits="userSpaceOnUse">
<stop stop-color="#E52513"/>
<stop offset="1" stop-color="#F28C00"/>
</linearGradient>
</defs>
</svg>
