<svg xmlns="http://www.w3.org/2000/svg" width="24" height="24" viewBox="0 0 24 24">
    <g fill="none" fill-rule="evenodd">
        <g fill="#ADB3C6">
            <g>
                <path d="M13 16.719v2.279c0 .552-.448 1-1 1-.553 0-1-.448-1-1v-2.279c-.596-.346-1-.984-1-1.723 0-1.105.895-2.001 2-2.001 1.104 0 2 .896 2 2.001 0 .739-.405 1.377-1 1.723zM8 8.003c0-2.207 1.794-4.002 4-4.002s4 1.795 4 4.002v1.99H8v-1.99zm11 1.99h-1v-1.99C18 4.693 15.309 2 12 2S6 4.693 6 8.003v1.99H5c-.828 0-1.5.672-1.5 1.501v10.005C3.5 22.328 4.172 23 5 23h14c.828 0 1.5-.672 1.5-1.501V11.494c0-.829-.672-1.501-1.5-1.501z" transform="translate(-75 -1192) translate(75 1192)"/>
            </g>
        </g>
    </g>
</svg>
