<?xml version="1.0" encoding="UTF-8"?><svg xmlns="http://www.w3.org/2000/svg" fill="none" height="18" id="svg44" inkscape:version="1.0.2 (e86c870879, 2021-01-15, custom)" sodipodi:docname="sbp-logo-small.svg" version="1.1" viewBox="0 0 36 18" width="36" xmlns:cc="http://creativecommons.org/ns#" xmlns:dc="http://purl.org/dc/elements/1.1/" xmlns:inkscape="http://www.inkscape.org/namespaces/inkscape" xmlns:rdf="http://www.w3.org/1999/02/22-rdf-syntax-ns#" xmlns:sodipodi="http://sodipodi.sourceforge.net/DTD/sodipodi-0.dtd" xmlns:svg="http://www.w3.org/2000/svg">
  <metadata id="metadata50">
    <rdf:RDF>
      <cc:Work rdf:about="">
        <dc:format>image/svg+xml</dc:format>
        <dc:type rdf:resource="http://purl.org/dc/dcmitype/StillImage"/>
        <dc:title/>
      </cc:Work>
    </rdf:RDF>
  </metadata>
  <defs id="defs48"/>
  <sodipodi:namedview bordercolor="#666666" borderopacity="1" fit-margin-bottom="0" fit-margin-left="0" fit-margin-right="0" fit-margin-top="0" gridtolerance="10" guidetolerance="10" id="namedview46" inkscape:current-layer="svg44" inkscape:cx="113.95784" inkscape:cy="60" inkscape:document-rotation="0" inkscape:pageopacity="0" inkscape:pageshadow="2" inkscape:window-height="1010" inkscape:window-maximized="1" inkscape:window-width="1920" inkscape:window-x="-6" inkscape:window-y="-6" inkscape:zoom="5.4435146" objecttolerance="10" pagecolor="#ffffff" showgrid="false"/>
  <path d="m 36,6.7998 v 4.4007 h -1.783663 v -3.087 h -1.717432 v 3.087 H 30.715242 V 6.7995 H 36 Z" fill="#ffffff" id="path2" style="stroke-width:0.15981"/>
  <path clip-rule="evenodd" d="m 27.052058,12.143475 c 1.596715,0 2.782419,-0.8625 2.782419,-2.17005 0,-1.26555 -0.874805,-2.08725 -2.336844,-2.08725 -0.674748,0 -1.231504,0.20925 -1.650859,0.5703 0.100114,-0.74625 0.816405,-1.29105 1.605058,-1.29105 0.18201,0 1.552278,-0.00255 1.552278,-0.00255 l 0.774862,-1.30635 c 0,0 -1.720326,0.0345 -2.520046,0.0345 -1.827251,0.02805 -3.061479,1.4913 -3.061479,3.2685 0,2.07045 1.203751,2.98395 2.854611,2.98395 z m 0.0097,-3.1002 c 0.592852,0 1.003864,0.3432 1.003864,0.93 0,0.52815 -0.365211,0.9633 -1.003864,0.9645 -0.610899,0 -1.021911,-0.4032 -1.021911,-0.9555 0,-0.58695 0.411012,-0.939 1.021911,-0.939 z" fill="#ffffff" fill-rule="evenodd" id="path4" style="stroke-width:0.15981"/>
  <path d="m 22.745624,9.8699045 c 0,0 -0.421228,0.2138995 -1.050345,0.2543995 -0.723273,0.0189 -1.367714,-0.3835496 -1.367714,-1.0985996 0,-0.6974999 0.568675,-1.09725 1.349496,-1.09725 0.478776,0 1.11215,0.29235 1.11215,0.29235 0,0 0.463453,-0.74925 0.703522,-1.12395 -0.439616,-0.29355 -1.025147,-0.4545 -1.706194,-0.4545 -1.718794,0 -3.050071,0.9873 -3.050071,2.3745 0,1.4048996 1.251254,2.3692496 3.050071,2.3401496 0.502783,-0.0165 1.19643,-0.17205 1.61919,-0.4113 z" fill="#ffffff" id="path6" style="stroke-width:0.15981"/>
  <path d="m 0,3.918 2.4742455,3.89625 v 2.3766 l -2.47135105,3.8886 z" fill="#5b57a2" id="path8" style="stroke-width:0.15981"/>
  <path d="m 9.5001017,6.39645 2.3184563,-1.2519 4.744857,-0.0039 -7.0633133,3.8121 z" fill="#d90751" id="path10" style="stroke-width:0.15981"/>
  <path d="m 9.4869915,3.89505 0.01311,5.1585 -2.4800344,-1.3425 V 0 l 2.4670945,3.89505 z" fill="#fab718" id="path12" style="stroke-width:0.15981"/>
  <path d="M 16.563415,5.14065 11.818387,5.14455 9.4869915,3.89505 7.0200673,0 16.563245,5.14065 Z" fill="#ed6f26" id="path14" style="stroke-width:0.15981"/>
  <path d="M 9.5001017,14.10105 V 11.5983 L 7.0200673,10.2813 7.0214293,18 Z" fill="#63b22f" id="path16" style="stroke-width:0.15981"/>
  <path d="M 11.812769,12.86055 2.4740753,7.81425 0,3.918 l 16.55337,8.93745 -4.740772,0.0051 z" fill="#1487c9" id="path18" style="stroke-width:0.15981"/>
  <path d="m 7.0215996,18 2.4783318,-3.89895 2.3126666,-1.2405 4.740602,-0.0051 z" fill="#017f36" id="path20" style="stroke-width:0.15981"/>
  <path d="m 0.00289445,14.07945 7.03743395,-3.798 -2.365959,-1.2789 -2.2001239,1.1883 z" fill="#984995" id="path22" style="stroke-width:0.15981"/>
</svg>