<svg xmlns="http://www.w3.org/2000/svg" xmlns:xlink="http://www.w3.org/1999/xlink" viewBox="0 0 224 32"><path d="M46 32H4c-2.2 0-4-1.8-4-4V4c0-2.2 1.8-4 4-4h42c2.2 0 4 1.8 4 4v24c0 2.2-1.8 4-4 4z" fill="#fff"/><path d="M46 1c1.7 0 3 1.3 3 3v24c0 1.7-1.3 3-3 3H4c-1.7 0-3-1.3-3-3V4c0-1.7 1.3-3 3-3h42m0-1H4C1.8 0 0 1.8 0 4v24c0 2.2 1.8 4 4 4h42c2.2 0 4-1.8 4-4V4c0-2.2-1.8-4-4-4h0z" fill="#c8ccdb"/><path d="M16.3 21.7h-3l-2.3-9c-.1-.4-.3-.8-.7-1-.8-.4-1.8-.8-2.8-1v-.3h4.9a1.3 1.3 0 0 1 1.3 1.1l1.2 6.5 3-7.6h2.9l-4.5 11.3zm6.2 0h-2.9L22 10.5h2.9l-2.4 11.2zm6-8.1c.1-.6.6-1 1.2-1 .9-.1 1.9.1 2.8.5l.5-2.4c-.8-.3-1.8-.5-2.6-.5-2.8 0-4.8 1.6-4.8 3.7 0 1.6 1.4 2.5 2.4 3 1.1.5 1.5.9 1.4 1.4 0 .8-.8 1.1-1.7 1.1-1 0-2-.3-2.9-.7l-.5 2.4c1 .4 2.1.6 3.1.6 3.1.1 5-1.5 5-3.8.1-2.9-3.9-3-3.9-4.3zm14 8.1l-2.3-11.2h-2.4c-.5 0-1 .3-1.2.9l-4.2 10.4h2.9l.6-1.6h3.6l.3 1.6h2.7zm-4.3-8.2l.8 4.2h-2.4l1.6-4.2z" fill="#172b85"/><path d="M104 32.1H62c-2.2 0-4-1.8-4-4v-24c0-2.2 1.8-4 4-4h42c2.2 0 4 1.8 4 4v24c0 2.2-1.8 4-4 4z" fill="#fff"/><path d="M104 1.1c1.7 0 3 1.3 3 3v24c0 1.7-1.3 3-3 3H62c-1.7 0-3-1.3-3-3v-24c0-1.7 1.3-3 3-3h42m0-1H62c-2.2 0-4 1.8-4 4v24c0 2.2 1.8 4 4 4h42c2.2 0 4-1.8 4-4v-24c0-2.2-1.8-4-4-4h0z" fill="#c8ccdb"/><linearGradient id="A" gradientUnits="userSpaceOnUse" x1="90.162" y1="13.1" x2="100.5" y2="13.1"><stop offset="0" stop-color="#00b4e6"/><stop offset="1" stop-color="#088ccb"/></linearGradient><path d="M96.9 10.9h-6.7c.4 2.3 2.5 4.4 4.9 4.4h5.3c.1-.2.1-.5.1-.7 0-2.1-1.6-3.7-3.6-3.7z" fill="url(#A)"/><path d="M90.8 15.7v5.6H94v-3h2.9a3.54 3.54 0 0 0 3.4-2.6h-9.5zm-11.6-4.8v10.4h2.9s.7 0 1.1-.7l2.5-5.2h.4v5.9h3.2V10.9h-2.9s-.7.1-1.1.7l-2.5 5.2h-.4v-5.9h-3.2zM65.5 21.2V10.9h3.2s.9 0 1.4 1.5l1.4 4.4 1.4-4.4c.5-1.5 1.4-1.5 1.4-1.5h3.2v10.4h-3.2v-5.6h-.4l-1.8 5.6h-1.4l-1.8-5.6h-.4v5.6h-3z" fill="#4db45f"/><path d="M162 32h-42c-2.2 0-4-1.8-4-4V4c0-2.2 1.8-4 4-4h42c2.2 0 4 1.8 4 4v24c0 2.2-1.8 4-4 4z" fill="#fff"/><use xlink:href="#C" fill="#c8ccdb"/><path d="M141 22.5c-1.5 1.3-3.4 2-5.4 2-4.6 0-8.4-3.8-8.4-8.5s3.8-8.5 8.4-8.5c2.1 0 4 .8 5.4 2 1.5-1.3 3.4-2 5.4-2 4.6 0 8.4 3.8 8.4 8.5s-3.8 8.5-8.4 8.5c-2 0-3.9-.8-5.4-2z" fill="#ed0006"/><path d="M141 22.5c1.8-1.6 2.9-3.9 2.9-6.5s-1.1-4.9-2.9-6.5c1.5-1.3 3.4-2 5.4-2 4.6 0 8.4 3.8 8.4 8.5s-3.8 8.5-8.4 8.5c-2 0-3.9-.8-5.4-2z" fill="#f9a000"/><path d="M141 22.5c1.8-1.6 2.9-3.9 2.9-6.5s-1.1-4.9-2.9-6.5c-1.8 1.6-2.9 3.9-2.9 6.5s1.1 4.9 2.9 6.5z" fill="#ff5e00"/><path d="M220 32h-42c-2.2 0-4-1.8-4-4V4c0-2.2 1.8-4 4-4h42c2.2 0 4 1.8 4 4v24c0 2.2-1.8 4-4 4z" fill="#fff"/><use xlink:href="#C" x="58" fill="#c8ccdb"/><path d="M202.7,22.6h-7.4V9.3h7.4V22.6z" fill="#6c6bbd"/><path d="M195.8 15.9c0-2.7 1.3-5.1 3.2-6.7-1.4-1.1-3.3-1.8-5.3-1.8-4.7 0-8.5 3.8-8.5 8.5s3.8 8.5 8.5 8.5c2 0 3.8-.7 5.3-1.8-2-1.5-3.2-4-3.2-6.7" fill="#d32011"/><path d="M212.8 15.9c0 4.7-3.8 8.5-8.5 8.5-2 0-3.8-.7-5.3-1.8 2-1.6 3.2-4 3.2-6.7s-1.3-5.1-3.2-6.7c1.4-1.1 3.3-1.8 5.3-1.8 4.6 0 8.5 3.8 8.5 8.5" fill="#0099df"/><defs ><path id="C" d="M162 1c1.7 0 3 1.3 3 3v24c0 1.7-1.3 3-3 3h-42c-1.7 0-3-1.3-3-3V4c0-1.7 1.3-3 3-3h42m0-1h-42c-2.2 0-4 1.8-4 4v24c0 2.2 1.8 4 4 4h42c2.2 0 4-1.8 4-4V4c0-2.2-1.8-4-4-4h0z"/></defs></svg>