<svg width="311" height="48" viewBox="0 0 415 64" fill="none" xmlns="http://www.w3.org/2000/svg">
<path fill-rule="evenodd" clip-rule="evenodd" d="M175.979 15.1827V48.8187C175.979 52.308 178.811 55.14 182.299 55.14H241.841C245.329 55.14 248.161 52.308 248.161 48.8187V15.1827C248.161 11.6933 245.329 8.86134 241.841 8.86134H182.299C178.811 8.86134 175.979 11.6933 175.979 15.1827V15.1827Z" fill="white"/>
<path fill-rule="evenodd" clip-rule="evenodd" d="M195.413 52.1573V49.4707C195.413 48.4387 194.787 47.7693 193.709 47.7693C193.173 47.7693 192.591 47.9467 192.188 48.5293C191.873 48.0347 191.425 47.7693 190.755 47.7693C190.305 47.7693 189.857 47.9027 189.5 48.3947V47.8573H188.559V52.1573H189.5V49.7827C189.5 49.0213 189.904 48.664 190.531 48.664C191.156 48.664 191.469 49.0667 191.469 49.7827V52.1573H192.412V49.7827C192.412 49.0213 192.859 48.664 193.441 48.664C194.068 48.664 194.381 49.0667 194.381 49.7827V52.1573H195.413V52.1573ZM209.341 47.8573H207.82V46.5573H206.879V47.8573H206.028V48.708H206.879V50.6787C206.879 51.664 207.284 52.2467 208.356 52.2467C208.761 52.2467 209.209 52.1133 209.523 51.9347L209.253 51.128C208.987 51.3053 208.671 51.352 208.447 51.352C207.999 51.352 207.82 51.0813 207.82 50.6333V48.708H209.341V47.8573V47.8573ZM217.317 47.7693C216.779 47.7693 216.421 48.0347 216.199 48.3947V47.8573H215.257V52.1573H216.199V49.7387C216.199 49.0213 216.509 48.6173 217.092 48.6173C217.271 48.6173 217.496 48.664 217.673 48.708L217.944 47.812C217.764 47.7693 217.496 47.7693 217.317 47.7693V47.7693ZM205.268 48.2147C204.82 47.9027 204.191 47.7693 203.521 47.7693C202.445 47.7693 201.728 48.3053 201.728 49.156C201.728 49.8733 202.265 50.2747 203.205 50.4107L203.655 50.456C204.147 50.5453 204.416 50.6787 204.416 50.9013C204.416 51.216 204.057 51.44 203.431 51.44C202.801 51.44 202.309 51.216 201.997 50.992L201.549 51.7107C202.041 52.0667 202.713 52.2467 203.384 52.2467C204.64 52.2467 205.356 51.664 205.356 50.8573C205.356 50.0973 204.773 49.692 203.879 49.5587L203.431 49.5147C203.025 49.4707 202.713 49.38 202.713 49.1093C202.713 48.7973 203.025 48.6173 203.521 48.6173C204.057 48.6173 204.595 48.844 204.864 48.976L205.268 48.2147V48.2147ZM230.261 47.7693C229.725 47.7693 229.365 48.0347 229.143 48.3947V47.8573H228.201V52.1573H229.143V49.7387C229.143 49.0213 229.456 48.6173 230.039 48.6173C230.217 48.6173 230.441 48.664 230.62 48.708L230.889 47.812C230.709 47.7693 230.441 47.7693 230.261 47.7693V47.7693ZM218.256 50.0067C218.256 51.3053 219.152 52.2467 220.541 52.2467C221.168 52.2467 221.617 52.1133 222.065 51.7547L221.617 50.992C221.259 51.2613 220.9 51.396 220.496 51.396C219.735 51.396 219.196 50.8573 219.196 50.0067C219.196 49.2 219.735 48.664 220.496 48.6173C220.9 48.6173 221.259 48.7547 221.617 49.0213L222.065 48.2613C221.617 47.9027 221.168 47.7693 220.541 47.7693C219.152 47.7693 218.256 48.708 218.256 50.0067V50.0067ZM226.948 50.0067V47.8573H226.007V48.3947C225.692 47.9907 225.244 47.7693 224.661 47.7693C223.453 47.7693 222.512 48.708 222.512 50.0067C222.512 51.3053 223.453 52.2467 224.661 52.2467C225.288 52.2467 225.737 52.0227 226.007 51.6213V52.1573H226.948V50.0067V50.0067ZM223.499 50.0067C223.499 49.2467 223.991 48.6173 224.796 48.6173C225.559 48.6173 226.095 49.2 226.095 50.0067C226.095 50.7693 225.559 51.396 224.796 51.396C223.991 51.352 223.499 50.7693 223.499 50.0067ZM212.255 47.7693C211.001 47.7693 210.105 48.664 210.105 50.0067C210.105 51.352 211.001 52.2467 212.299 52.2467C212.927 52.2467 213.555 52.0667 214.047 51.664L213.597 50.992C213.239 51.2613 212.793 51.44 212.344 51.44C211.761 51.44 211.18 51.172 211.044 50.4107H214.227V50.0533C214.271 48.664 213.464 47.7693 212.255 47.7693V47.7693ZM212.255 48.5733C212.837 48.5733 213.239 48.932 213.329 49.604H211.092C211.18 49.0213 211.584 48.5733 212.255 48.5733V48.5733ZM235.592 50.0067V46.156H234.651V48.3947C234.339 47.9907 233.891 47.7693 233.308 47.7693C232.099 47.7693 231.157 48.708 231.157 50.0067C231.157 51.3053 232.099 52.2467 233.308 52.2467C233.935 52.2467 234.383 52.0227 234.651 51.6213V52.1573H235.592V50.0067ZM232.143 50.0067C232.143 49.2467 232.635 48.6173 233.441 48.6173C234.203 48.6173 234.741 49.2 234.741 50.0067C234.741 50.7693 234.203 51.396 233.441 51.396C232.635 51.352 232.143 50.7693 232.143 50.0067ZM200.697 50.0067V47.8573H199.756V48.3947C199.443 47.9907 198.996 47.7693 198.413 47.7693C197.204 47.7693 196.263 48.708 196.263 50.0067C196.263 51.3053 197.204 52.2467 198.413 52.2467C199.04 52.2467 199.489 52.0227 199.756 51.6213V52.1573H200.697V50.0067V50.0067ZM197.204 50.0067C197.204 49.2467 197.697 48.6173 198.504 48.6173C199.264 48.6173 199.803 49.2 199.803 50.0067C199.803 50.7693 199.264 51.396 198.504 51.396C197.697 51.352 197.204 50.7693 197.204 50.0067Z" fill="black"/>
<path fill-rule="evenodd" clip-rule="evenodd" d="M219.062 40.5587H204.951V15.204H219.062V40.5587V40.5587Z" fill="#FF5F00"/>
<path fill-rule="evenodd" clip-rule="evenodd" d="M205.851 27.8787C205.851 22.728 208.267 18.1587 211.985 15.2027C209.253 13.052 205.804 11.7533 202.041 11.7533C193.127 11.7533 185.916 18.964 185.916 27.8787C185.916 36.7933 193.127 44.0053 202.041 44.0053C205.804 44.0053 209.253 42.7067 211.985 40.556C208.267 37.644 205.851 33.0307 205.851 27.8787Z" fill="#EB001B"/>
<path fill-rule="evenodd" clip-rule="evenodd" d="M238.1 27.8787C238.1 36.7933 230.889 44.0053 221.974 44.0053C218.212 44.0053 214.762 42.7067 212.03 40.556C215.793 37.5987 218.168 33.0307 218.168 27.8787C218.168 22.728 215.748 18.1587 212.03 15.2027C214.762 13.052 218.212 11.7533 221.974 11.7533C230.889 11.7533 238.1 19.0093 238.1 27.8787Z" fill="#F79E1B"/>
<path fill-rule="evenodd" clip-rule="evenodd" d="M255.596 15.1827V48.8187C255.596 52.308 258.428 55.14 261.916 55.14H321.458C324.946 55.14 327.778 52.308 327.778 48.8187V15.1827C327.778 11.6933 324.946 8.86134 321.458 8.86134H261.916C258.428 8.86134 255.596 11.6933 255.596 15.1827Z" fill="white"/>
<path fill-rule="evenodd" clip-rule="evenodd" d="M359.595 40.44L364.891 23.412H369.611L364.319 40.44H359.595ZM357.483 23.412L353.246 30.6347C352.155 32.524 351.527 33.476 351.23 34.676H351.16C351.239 33.1507 351.011 31.2947 350.999 30.2467L350.53 23.412H342.582L342.51 23.8653C344.547 23.8653 345.755 24.8707 346.088 26.9173L347.64 40.44H352.532L362.41 23.412H357.483V23.412ZM393.658 30.3667C393.596 29.1 393.556 27.3987 393.642 26.3573H393.58C393.28 27.2053 392.054 29.7493 391.516 30.9973L389.754 34.7307H393.892L393.658 30.3667ZM394.183 40.4067L394.06 37.8773L388.164 37.8667L386.959 40.4067H381.843L391.131 23.412H397.416L398.998 40.4067H394.183V40.4067ZM374.559 41.2987C371.23 41.2987 369.022 40.2627 367.444 39.348L369.688 35.9947C371.103 36.7707 372.215 37.664 374.79 37.664C375.602 37.664 376.398 37.4613 376.847 36.6853C377.506 35.58 376.696 34.984 374.855 33.9653L373.942 33.384C371.206 31.5653 370.031 29.8333 371.308 26.8147C372.13 24.8787 374.311 23.412 377.892 23.412C380.363 23.412 382.672 24.448 384.024 25.472L381.438 28.4347C380.128 27.3987 379.031 26.8733 377.778 26.8733C376.791 26.8733 376.035 27.244 375.763 27.7493C375.283 28.6973 375.931 29.348 377.368 30.2173L378.448 30.8907C381.766 32.928 382.559 35.0813 381.724 37.08C380.292 40.528 377.491 41.2987 374.559 41.2987V41.2987Z" fill="#005A9B"/>
<path fill-rule="evenodd" clip-rule="evenodd" d="M255.595 15.1813V48.8187C255.595 52.308 258.427 55.14 261.916 55.14H321.459C324.948 55.14 327.78 52.308 327.78 48.8187V15.1813C327.78 11.6933 324.948 8.86134 321.459 8.86134H261.916C258.427 8.86134 255.595 11.6933 255.595 15.1813V15.1813Z" fill="white"/>
<path d="M317.216 37.8133V37.1893H317.053L316.865 37.6173L316.679 37.1893H316.515V37.8133H316.632V37.3413L316.807 37.748H316.927L317.103 37.34V37.8133H317.216V37.8133ZM316.185 37.8133V37.2947H316.393V37.1893H315.861V37.2947H316.069V37.8133H316.185Z" fill="#0099DF"/>
<path d="M298.727 40.492H284.648V15.1933H298.727V40.492Z" fill="#6C6BBD"/>
<path d="M285.544 27.8427C285.544 22.7107 287.945 18.14 291.686 15.1947C288.952 13.04 285.498 11.7533 281.746 11.7533C272.861 11.7533 265.658 18.956 265.658 27.8427C265.658 36.728 272.861 43.932 281.746 43.932C285.498 43.932 288.952 42.6467 291.686 40.492C287.945 37.5453 285.544 32.976 285.544 27.8427" fill="#D32011"/>
<path d="M317.719 27.8427C317.719 36.728 310.516 43.932 301.631 43.932C297.879 43.932 294.425 42.6467 291.687 40.492C295.432 37.5453 297.833 32.976 297.833 27.8427C297.833 22.7107 295.432 18.14 291.687 15.1947C294.425 13.04 297.879 11.7533 301.631 11.7533C310.516 11.7533 317.719 18.956 317.719 27.8427" fill="#0099DF"/>
<path d="M303.49 47.64C303.676 47.64 303.946 47.6773 304.151 47.7573L303.864 48.6333C303.668 48.5507 303.471 48.5253 303.283 48.5253C302.676 48.5253 302.372 48.9173 302.372 49.6227V52.02H301.443V47.748H302.364V48.2667C302.604 47.8907 302.954 47.64 303.49 47.64ZM300.054 48.596H298.535V50.528C298.535 50.956 298.686 51.2413 299.152 51.2413C299.392 51.2413 299.698 51.1613 299.974 51.0013L300.242 51.7947C299.947 52 299.483 52.128 299.08 52.128C297.982 52.128 297.598 51.5373 297.598 50.544V48.596H296.73V47.748H297.598V46.452H298.535V47.748H300.054V48.596V48.596ZM288.159 49.508C288.259 48.892 288.632 48.4707 289.295 48.4707C289.894 48.4707 290.276 48.8467 290.376 49.508H288.159ZM291.342 49.8827C291.331 48.5507 290.51 47.64 289.312 47.64C288.06 47.64 287.186 48.5507 287.186 49.8827C287.186 51.2413 288.096 52.1267 289.375 52.1267C290.019 52.1267 290.608 51.9653 291.126 51.5267L290.67 50.84C290.314 51.1253 289.858 51.2867 289.428 51.2867C288.83 51.2867 288.284 51.008 288.151 50.2413H291.324C291.331 50.124 291.342 50.0093 291.342 49.8827V49.8827ZM295.424 48.8387C295.166 48.676 294.639 48.4707 294.095 48.4707C293.586 48.4707 293.28 48.6587 293.28 48.972C293.28 49.2573 293.602 49.3387 294.004 49.392L294.442 49.4533C295.371 49.5893 295.935 49.9827 295.935 50.7333C295.935 51.5467 295.219 52.128 293.987 52.128C293.29 52.128 292.646 51.948 292.136 51.572L292.574 50.848C292.887 51.0893 293.352 51.2947 293.996 51.2947C294.63 51.2947 294.97 51.108 294.97 50.7773C294.97 50.536 294.728 50.4027 294.219 50.3307L293.782 50.268C292.824 50.1347 292.306 49.7053 292.306 49.008C292.306 48.1587 293.003 47.64 294.084 47.64C294.764 47.64 295.38 47.792 295.827 48.088L295.424 48.8387V48.8387ZM306.886 48.5227C306.696 48.5227 306.518 48.5573 306.354 48.624C306.19 48.6907 306.047 48.7853 305.928 48.9053C305.808 49.0253 305.714 49.1707 305.646 49.3413C305.576 49.5107 305.543 49.696 305.543 49.8973C305.543 50.1027 305.576 50.2867 305.646 50.4547C305.714 50.6253 305.808 50.7693 305.928 50.8893C306.047 51.012 306.19 51.1053 306.354 51.172C306.518 51.24 306.696 51.2733 306.886 51.2733C307.076 51.2733 307.256 51.24 307.419 51.172C307.584 51.1053 307.727 51.012 307.847 50.8893C307.97 50.7693 308.062 50.6253 308.132 50.4547C308.2 50.2867 308.235 50.1027 308.235 49.8973C308.235 49.696 308.2 49.5107 308.132 49.3413C308.062 49.1707 307.97 49.0253 307.847 48.9053C307.727 48.7853 307.584 48.6907 307.419 48.624C307.256 48.5573 307.076 48.5227 306.886 48.5227ZM306.886 47.64C307.218 47.64 307.526 47.6987 307.807 47.8133C308.09 47.928 308.332 48.0867 308.54 48.288C308.746 48.4893 308.907 48.728 309.023 49.0013C309.14 49.2773 309.198 49.576 309.198 49.8973C309.198 50.22 309.14 50.5187 309.023 50.7933C308.907 51.068 308.746 51.308 308.54 51.5093C308.332 51.7107 308.09 51.868 307.807 51.9827C307.526 52.0987 307.218 52.1547 306.886 52.1547C306.555 52.1547 306.248 52.0987 305.966 51.9827C305.684 51.868 305.44 51.7107 305.236 51.5093C305.031 51.308 304.872 51.068 304.755 50.7933C304.639 50.5187 304.579 50.22 304.579 49.8973C304.579 49.576 304.639 49.2773 304.755 49.0013C304.872 48.728 305.031 48.4893 305.236 48.288C305.44 48.0867 305.684 47.928 305.966 47.8133C306.248 47.6987 306.555 47.64 306.886 47.64ZM282.73 49.8827C282.73 49.132 283.222 48.516 284.026 48.516C284.794 48.516 285.314 49.1067 285.314 49.8827C285.314 50.6613 284.794 51.2507 284.026 51.2507C283.222 51.2507 282.73 50.6333 282.73 49.8827ZM286.187 49.8827V47.748H285.259V48.2667C284.963 47.8827 284.518 47.64 283.911 47.64C282.712 47.64 281.774 48.5787 281.774 49.8827C281.774 51.188 282.712 52.128 283.911 52.128C284.518 52.128 284.963 51.8853 285.259 51.5V52.02H286.187V49.8827V49.8827ZM280.952 52.02V49.3387C280.952 48.328 280.308 47.6493 279.271 47.64C278.727 47.6307 278.164 47.8013 277.771 48.4013C277.476 47.9267 277.011 47.64 276.358 47.64C275.902 47.64 275.456 47.7747 275.107 48.2733V47.748H274.178V52.02H275.115V49.6507C275.115 48.9093 275.527 48.516 276.162 48.516C276.779 48.516 277.092 48.9173 277.092 49.6427V52.02H278.028V49.6507C278.028 48.9093 278.459 48.516 279.075 48.516C279.71 48.516 280.012 48.9173 280.012 49.6427V52.02H280.952V52.02Z" fill="#110F0D"/>
<path d="M310.245 51.6987V51.804H310.342C310.362 51.804 310.382 51.7987 310.394 51.7893C310.406 51.7827 310.414 51.7667 310.414 51.7507C310.414 51.7333 310.406 51.72 310.394 51.7107C310.382 51.7027 310.362 51.6987 310.342 51.6987H310.245V51.6987ZM310.342 51.624C310.393 51.624 310.431 51.6347 310.458 51.6587C310.486 51.68 310.499 51.7107 310.499 51.7507C310.499 51.784 310.49 51.8094 310.466 51.8307C310.445 51.8507 310.414 51.864 310.372 51.8707L310.502 52.0187H310.403L310.282 51.872H310.245V52.0187H310.161V51.624H310.342V51.624ZM310.317 52.1534C310.362 52.1534 310.406 52.1467 310.443 52.128C310.484 52.1107 310.519 52.0867 310.549 52.0573C310.578 52.0267 310.602 51.9933 310.619 51.952C310.635 51.912 310.644 51.8693 310.644 51.8227C310.644 51.7773 310.635 51.7347 310.619 51.6933C310.602 51.6547 310.578 51.6174 310.549 51.5894C310.519 51.5587 310.484 51.536 310.443 51.5187C310.406 51.5013 310.362 51.4947 310.317 51.4947C310.27 51.4947 310.226 51.5013 310.186 51.5187C310.146 51.536 310.109 51.5587 310.081 51.5894C310.05 51.6174 310.026 51.6547 310.011 51.6933C309.993 51.7347 309.986 51.7773 309.986 51.8227C309.986 51.8693 309.993 51.912 310.011 51.952C310.026 51.9933 310.05 52.0267 310.081 52.0573C310.109 52.0867 310.146 52.1107 310.186 52.128C310.226 52.1467 310.27 52.1534 310.317 52.1534ZM310.317 51.3987C310.377 51.3987 310.432 51.4094 310.484 51.432C310.538 51.4534 310.582 51.4853 310.622 51.5227C310.662 51.5613 310.691 51.6067 310.714 51.6587C310.738 51.7093 310.748 51.764 310.748 51.8227C310.748 51.8813 310.738 51.9374 310.714 51.988C310.691 52.0387 310.662 52.084 310.622 52.1213C310.582 52.16 310.538 52.192 310.484 52.2147C310.432 52.236 310.377 52.2467 310.317 52.2467C310.254 52.2467 310.198 52.236 310.146 52.2147C310.093 52.192 310.046 52.16 310.007 52.1213C309.968 52.084 309.938 52.0387 309.915 51.988C309.892 51.9374 309.882 51.8813 309.882 51.8227C309.882 51.764 309.892 51.7093 309.915 51.6587C309.938 51.6067 309.968 51.5613 310.007 51.5227C310.046 51.4853 310.093 51.4534 310.146 51.432C310.198 51.4094 310.254 51.3987 310.317 51.3987Z" fill="#242021"/>
<path fill-rule="evenodd" clip-rule="evenodd" d="M15.999 15.8853V48.116C15.999 49.7093 17.2924 51.0027 18.8857 51.0027H71.1617C72.755 51.0027 74.0484 49.7093 74.0484 48.116V15.8853C74.0484 14.292 72.755 12.9987 71.1617 12.9987H18.8857C17.2924 12.9987 15.999 14.292 15.999 15.8853V15.8853Z" fill="#90A7B2" fill-opacity="0.501961"/>
<path fill-rule="evenodd" clip-rule="evenodd" d="M19.9949 37.016V39.0133H63.9922V37.016H19.9949ZM19.9922 43.0133V45.0107H41.9949V43.0133H19.9922ZM45.9922 43.0133V45.0107H57.9949V43.0133H45.9922ZM19.9962 27.596V30.4107C19.9962 31.84 21.1575 33.0013 22.5869 33.0013H29.4069C30.8362 33.0013 31.9975 31.84 31.9975 30.4107V27.596C31.9975 26.1667 30.8362 25.0053 29.4069 25.0053H22.5869C21.1575 25.0053 19.9962 26.1667 19.9962 27.596V27.596Z" fill="#E5E5E5"/>
<path d="M144.197 31.1903V41.1291H149.719V35.2394H155.977C158.61 35.2199 160.848 33.5375 161.691 31.1903H144.197Z" fill="#1D6847"/>
<path d="M143.461 23C143.783 27.0624 147.626 30.27 152.32 30.27C152.335 30.27 161.92 30.27 161.92 30.27C161.991 29.8975 162.028 29.5129 162.028 29.1197C162.028 25.7545 159.313 23.0249 155.955 23.0002L143.461 23Z" fill="url(#paint0_linear)"/>
<path d="M135.289 30.1734L135.293 30.1641L135.294 30.1642C135.35 30.0627 135.459 29.994 135.583 29.994C135.763 29.994 135.91 30.1373 135.915 30.316L135.915 30.3161V41.0371H141.436V23H135.915C135.214 23.0233 134.423 23.5371 134.129 24.1678L129.735 33.591C129.724 33.6295 129.707 33.6655 129.685 33.6978L129.684 33.7009L129.683 33.7007C129.617 33.7964 129.506 33.8591 129.381 33.8591C129.178 33.8591 129.013 33.6942 129.013 33.4909V23H123.491V41.0371H129.013V41.035C129.705 40.9988 130.478 40.4908 130.768 39.8692L135.278 30.1977C135.281 30.1894 135.285 30.1813 135.289 30.1734V30.1734Z" fill="#1D6847"/>
<path d="M114.671 30.4817L111.444 41.0371H107.472L104.243 30.4753C104.211 30.3062 104.063 30.178 103.885 30.178C103.684 30.178 103.522 30.3408 103.522 30.5415C103.522 30.5431 103.522 30.5446 103.522 30.5461L103.522 41.0371H98V23H102.739H104.151C105.167 23 106.231 23.7885 106.528 24.7596L109.216 33.549C109.349 33.9863 109.566 33.9858 109.7 33.549L112.387 24.7596C112.684 23.7878 113.748 23 114.764 23L116.176 23H120.914V41.0371H115.393V30.5461C115.393 30.5446 115.393 30.5431 115.393 30.5415C115.393 30.3408 115.23 30.178 115.029 30.178C114.849 30.178 114.699 30.3094 114.671 30.4817V30.4817Z" fill="#1D6847"/>
<defs>
<linearGradient id="paint0_linear" x1="143.461" y1="30.27" x2="162.028" y2="30.27" gradientUnits="userSpaceOnUse">
<stop stop-color="#3EB0FF"/>
<stop offset="1" stop-color="#305FDB"/>
</linearGradient>
</defs>
</svg>
