<svg width="282" height="33" viewBox="0 0 282 33" fill="none" xmlns="http://www.w3.org/2000/svg">
<path d="M46 32H4C1.8 32 0 30.2 0 28V4C0 1.8 1.8 0 4 0H46C48.2 0 50 1.8 50 4V28C50 30.2 48.2 32 46 32Z" fill="white"/>
<path d="M46 1C47.7 1 49 2.3 49 4V28C49 29.7 47.7 31 46 31H4C2.3 31 1 29.7 1 28V4C1 2.3 2.3 1 4 1H46ZM46 0H4C1.8 0 0 1.8 0 4V28C0 30.2 1.8 32 4 32H46C48.2 32 50 30.2 50 28V4C50 1.8 48.2 0 46 0Z" fill="#C8CCDB"/>
<path d="M16.3 21.7H13.3L11 12.7C10.9 12.3 10.7 11.9 10.3 11.7C9.5 11.3 8.5 10.9 7.5 10.7V10.4H12.4C12.7128 10.3963 13.0164 10.5055 13.2552 10.7075C13.494 10.9096 13.6519 11.1909 13.7 11.5L14.9 18L17.9 10.4H20.8L16.3 21.7V21.7ZM22.5 21.7H19.6L22 10.5H24.9L22.5 21.7ZM28.5 13.6C28.6 13 29.1 12.6 29.7 12.6C30.6 12.5 31.6 12.7 32.5 13.1L33 10.7C32.2 10.4 31.2 10.2 30.4 10.2C27.6 10.2 25.6 11.8 25.6 13.9C25.6 15.5 27 16.4 28 16.9C29.1 17.4 29.5 17.8 29.4 18.3C29.4 19.1 28.6 19.4 27.7 19.4C26.7 19.4 25.7 19.1 24.8 18.7L24.3 21.1C25.3 21.5 26.4 21.7 27.4 21.7C30.5 21.8 32.4 20.2 32.4 17.9C32.5 15 28.5 14.9 28.5 13.6V13.6ZM42.5 21.7L40.2 10.5H37.8C37.3 10.5 36.8 10.8 36.6 11.4L32.4 21.8H35.3L35.9 20.2H39.5L39.8 21.8H42.5V21.7ZM38.2 13.5L39 17.7H36.6L38.2 13.5Z" fill="#172B85"/>
<path d="M104 32.1H62C59.8 32.1 58 30.3 58 28.1V4.10001C58 1.90001 59.8 0.100006 62 0.100006H104C106.2 0.100006 108 1.90001 108 4.10001V28.1C108 30.3 106.2 32.1 104 32.1Z" fill="white"/>
<path d="M104 1.10001C105.7 1.10001 107 2.40001 107 4.10001V28.1C107 29.8 105.7 31.1 104 31.1H62C60.3 31.1 59 29.8 59 28.1V4.10001C59 2.40001 60.3 1.10001 62 1.10001H104V1.10001ZM104 0.100006H62C59.8 0.100006 58 1.90001 58 4.10001V28.1C58 30.3 59.8 32.1 62 32.1H104C106.2 32.1 108 30.3 108 28.1V4.10001C108 1.90001 106.2 0.100006 104 0.100006Z" fill="#C8CCDB"/>
<path d="M96.9 10.9H90.2C90.6 13.2 92.7 15.3 95.1 15.3H100.4C100.5 15.1 100.5 14.8 100.5 14.6C100.5 12.5 98.9 10.9 96.9 10.9V10.9Z" fill="url(#paint0_linear_6_2)"/>
<path d="M90.8 15.7V21.3H94V18.3H96.9C97.6728 18.2972 98.4235 18.0415 99.0375 17.572C99.6514 17.1026 100.095 16.4451 100.3 15.7H90.8V15.7ZM79.2 10.9V21.3H82.1C82.1 21.3 82.8 21.3 83.2 20.6L85.7 15.4H86.1V21.3H89.3V10.9H86.4C86.4 10.9 85.7 11 85.3 11.6L82.8 16.8H82.4V10.9H79.2V10.9ZM65.5 21.2V10.9H68.7C68.7 10.9 69.6 10.9 70.1 12.4L71.5 16.8L72.9 12.4C73.4 10.9 74.3 10.9 74.3 10.9H77.5V21.3H74.3V15.7H73.9L72.1 21.3H70.7L68.9 15.7H68.5V21.3H65.5V21.2Z" fill="#4DB45F"/>
<path d="M162 32H120C117.8 32 116 30.2 116 28V4C116 1.8 117.8 0 120 0H162C164.2 0 166 1.8 166 4V28C166 30.2 164.2 32 162 32Z" fill="white"/>
<path d="M162 1C163.7 1 165 2.3 165 4V28C165 29.7 163.7 31 162 31H120C118.3 31 117 29.7 117 28V4C117 2.3 118.3 1 120 1H162ZM162 0H120C117.8 0 116 1.8 116 4V28C116 30.2 117.8 32 120 32H162C164.2 32 166 30.2 166 28V4C166 1.8 164.2 0 162 0Z" fill="#C8CCDB"/>
<path d="M141 22.5C139.5 23.8 137.6 24.5 135.6 24.5C131 24.5 127.2 20.7 127.2 16C127.2 11.3 131 7.5 135.6 7.5C137.7 7.5 139.6 8.3 141 9.5C142.5 8.2 144.4 7.5 146.4 7.5C151 7.5 154.8 11.3 154.8 16C154.8 20.7 151 24.5 146.4 24.5C144.4 24.5 142.5 23.7 141 22.5Z" fill="#ED0006"/>
<path d="M141 22.5C142.8 20.9 143.9 18.6 143.9 16C143.9 13.4 142.8 11.1 141 9.5C142.5 8.2 144.4 7.5 146.4 7.5C151 7.5 154.8 11.3 154.8 16C154.8 20.7 151 24.5 146.4 24.5C144.4 24.5 142.5 23.7 141 22.5Z" fill="#F9A000"/>
<path d="M141 22.5C142.8 20.9 143.9 18.6 143.9 16C143.9 13.4 142.8 11.1 141 9.5C139.2 11.1 138.1 13.4 138.1 16C138.1 18.6 139.2 20.9 141 22.5Z" fill="#FF5E00"/>
<path d="M220 32H178C175.8 32 174 30.2 174 28V4C174 1.8 175.8 0 178 0H220C222.2 0 224 1.8 224 4V28C224 30.2 222.2 32 220 32Z" fill="white"/>
<path d="M220 1C221.7 1 223 2.3 223 4V28C223 29.7 221.7 31 220 31H178C176.3 31 175 29.7 175 28V4C175 2.3 176.3 1 178 1H220ZM220 0H178C175.8 0 174 1.8 174 4V28C174 30.2 175.8 32 178 32H220C222.2 32 224 30.2 224 28V4C224 1.8 222.2 0 220 0Z" fill="#C8CCDB"/>
<path d="M202.7 22.6H195.3V9.29999H202.7V22.6Z" fill="#6C6BBD"/>
<path d="M195.8 15.9C195.8 13.2 197.1 10.8 199 9.19999C197.6 8.09999 195.7 7.39999 193.7 7.39999C189 7.39999 185.2 11.2 185.2 15.9C185.2 20.6 189 24.4 193.7 24.4C195.7 24.4 197.5 23.7 199 22.6C197 21.1 195.8 18.6 195.8 15.9" fill="#D32011"/>
<path d="M212.8 15.9C212.8 20.6 209 24.4 204.3 24.4C202.3 24.4 200.5 23.7 199 22.6C201 21 202.2 18.6 202.2 15.9C202.2 13.2 200.9 10.8 199 9.19999C200.4 8.09999 202.3 7.39999 204.3 7.39999C208.9 7.39999 212.8 11.2 212.8 15.9" fill="#0099DF"/>
<path d="M278 32H236C233.8 32 232 30.2 232 28V4C232 1.8 233.8 0 236 0H278C280.2 0 282 1.8 282 4V28C282 30.2 280.2 32 278 32Z" fill="white"/>
<path d="M278 1C279.7 1 281 2.3 281 4V28C281 29.7 279.7 31 278 31H236C234.3 31 233 29.7 233 28V4C233 2.3 234.3 1 236 1H278ZM278 0H236C233.8 0 232 1.8 232 4V28C232 30.2 233.8 32 236 32H278C280.2 32 282 30.2 282 28V4C282 1.8 280.2 0 278 0Z" fill="#C8CCDB"/>
<path d="M247.907 7H255.481C256.526 7 257.205 7.77272 256.944 8.69999L253.444 22.3C253.235 23.2788 252.138 24 251.093 24H243.519C242.474 24 241.795 23.2273 242.056 22.3L245.556 8.69999C245.765 7.77272 246.81 7 247.907 7Z" fill="#E21836"/>
<path d="M254.785 7H263.354C264.386 7 263.922 7.77272 263.715 8.69999L260.257 22.3C260.05 23.2788 260.102 24 259.07 24H250.501C249.468 24 248.797 23.2273 249.055 22.3L252.514 8.69999C252.669 7.77272 253.701 7 254.785 7" fill="#00447C"/>
<path d="M262.875 7H270.476C271.524 7 272.206 7.77272 271.944 8.69999L268.432 22.3C268.222 23.2788 267.121 24 266.073 24H258.524C257.476 24 256.794 23.2273 257.056 22.3L260.568 8.69999C260.726 7.77272 261.827 7 262.875 7Z" fill="#007B84"/>
<path d="M249.661 11.1099H248.549C248.549 11.2198 247.966 13.5275 247.966 13.5275C247.86 14.022 247.807 14.2967 247.489 14.5714C247.331 14.6813 247.119 14.7363 246.907 14.7363C246.536 14.7363 246.377 14.5714 246.324 14.2418V14.1319L246.43 13.5275C246.43 13.5275 247.013 11.3846 247.066 11.1099V11.0549H245.794C245.794 11.1099 245.794 11.1648 245.742 11.2198L245.159 13.5824L245.106 13.7473L245 14.4066C245 14.5714 245.053 14.7912 245.106 14.9011C245.318 15.3407 246.112 15.3956 246.536 15.3956C247.013 15.3956 247.489 15.3407 247.966 15.0659C248.549 14.7363 248.708 14.2418 248.867 13.7473L248.919 13.5275C248.919 13.5824 249.555 11.3846 249.661 11.1099V11.1099ZM251.568 12.8681C251.356 12.8681 251.144 12.9231 250.932 12.978C250.879 13.033 250.773 13.033 250.72 13.0879L250.773 12.8681L250.72 12.8132C250.244 12.9231 250.138 12.9231 249.661 12.978H249.608C249.555 13.4725 249.449 14.022 249.29 14.5165C249.237 14.8462 249.131 15.1209 249.078 15.4505V15.5055H250.085L250.138 15.4505C250.191 15.2308 250.191 15.1209 250.297 14.6813C250.35 14.4615 250.456 13.967 250.508 13.7473C250.614 13.6923 250.667 13.6923 250.826 13.6923C251.038 13.6923 250.985 13.8572 250.985 13.9121C250.985 14.022 250.879 14.4615 250.826 14.7363L250.773 14.956C250.72 15.1209 250.72 15.2857 250.667 15.4505V15.5055H251.674L251.727 15.4505C251.78 15.0659 251.833 14.956 251.939 14.4066L251.992 14.1868C252.097 13.6923 252.15 13.4725 252.097 13.1978C252.044 12.9231 251.833 12.8681 251.568 12.8681V12.8681ZM253.739 13.3626C253.528 13.4176 253.316 13.4176 253.21 13.4725C253.051 13.4725 252.839 13.5275 252.68 13.5275C252.68 13.6923 252.627 13.8571 252.627 14.022C252.627 14.1868 252.574 14.4066 252.521 14.6813C252.521 14.7912 252.468 14.9011 252.415 15.0659C252.362 15.2308 252.362 15.2857 252.309 15.4505H252.839H253.369C253.422 15.2857 253.422 15.2308 253.422 15.0659C253.422 14.9011 253.475 14.8462 253.528 14.4615C253.581 14.2967 253.581 14.0769 253.633 13.9121C253.686 13.7473 253.739 13.5824 253.739 13.3626V13.3626ZM253.792 12.7033C253.581 12.5934 253.21 12.6484 252.892 12.7582C252.68 12.9231 252.574 13.1978 252.839 13.3077C253.104 13.4176 253.422 13.3626 253.739 13.2527C254.004 13.033 254.004 12.8132 253.792 12.7033ZM255.117 15.4505C255.593 15.4505 256.017 15.3407 256.335 14.956C256.547 14.7363 256.706 14.4066 256.758 14.1319C256.864 13.5824 256.811 13.3077 256.653 13.1429C256.494 12.9231 256.123 12.8132 255.699 12.8132C255.275 12.8132 254.905 12.9231 254.534 13.1978C254.216 13.4176 254.057 13.8022 254.004 14.1868C253.951 14.5714 253.845 15.1758 254.428 15.3956C254.693 15.4505 254.852 15.4505 255.117 15.4505V15.4505ZM255.011 14.1868C255.117 13.7473 255.222 13.4176 255.54 13.4176C255.752 13.4176 255.752 13.6374 255.699 14.0769C255.646 14.2418 255.593 14.5165 255.487 14.6813C255.434 14.7912 255.328 14.8462 255.169 14.8462C255.117 14.8462 254.958 14.8462 254.958 14.6264C254.958 14.5165 255.011 14.4066 255.011 14.1868V14.1868ZM257.871 15.3956C257.924 15.0659 257.977 15.011 258.03 14.5714C258.083 14.3516 258.189 13.8572 258.242 13.6374C258.347 13.5824 258.4 13.5824 258.559 13.5824C258.771 13.5824 258.718 13.7473 258.718 13.8022C258.665 14.1319 258.612 14.4066 258.559 14.6264L258.506 14.8462C258.453 15.011 258.453 15.1758 258.4 15.3407V15.3956H259.407L259.46 15.3407C259.513 14.9561 259.513 14.8462 259.672 14.2967L259.725 14.0769C259.831 13.5824 259.883 13.3626 259.831 13.0879C259.725 12.9231 259.513 12.7582 259.301 12.7582C259.089 12.7582 258.877 12.8132 258.665 12.8681C258.612 12.9231 258.506 12.9231 258.453 12.978L258.506 12.7582L258.453 12.7033C257.977 12.8132 257.871 12.8132 257.394 12.8681H257.341C257.288 13.3626 257.182 13.9121 257.023 14.4066C256.97 14.7363 256.864 15.011 256.811 15.3407V15.3956H257.871V15.3956ZM261.208 15.4505C261.208 15.3407 261.367 14.5165 261.367 14.5165C261.367 14.5165 261.472 13.967 261.525 13.9121C261.525 13.8572 261.578 13.8571 261.631 13.8571H261.684C262.32 13.8571 263.008 13.8571 263.538 13.4725C263.962 13.1429 264.174 12.8132 264.28 12.3187C264.333 12.2088 264.333 12.0989 264.333 11.8791C264.333 11.6593 264.28 11.4945 264.174 11.3846C263.856 11 263.379 11 262.638 11H262.32H261.049C261.049 11.0549 260.996 11.1648 260.996 11.1648L260.678 12.4835L259.936 15.3956C260.731 15.3956 260.996 15.3956 261.208 15.4505ZM261.737 13.0879C261.737 13.0879 262.055 11.7692 262.055 11.8242V11.7143H262.161L262.797 11.7692C263.008 11.8791 263.167 12.1538 263.114 12.4286C263.061 12.7582 262.903 12.978 262.585 13.0879C262.373 13.1429 262.108 13.1978 261.843 13.1978H261.684L261.737 13.0879V13.0879ZM263.697 14.2418C263.644 14.6264 263.538 15.2308 264.121 15.3956C264.28 15.4505 264.492 15.5055 264.65 15.5055C264.809 15.5055 265.021 15.3956 265.18 15.2857L265.127 15.4505V15.5055H266.186L266.239 15.4505C266.292 15.0659 266.345 14.7363 266.557 13.967C266.61 13.5824 266.716 13.3077 266.769 12.9231V12.8681C266.292 12.9231 266.186 12.978 265.71 13.033H265.657V13.1429C265.604 13.033 265.498 12.9231 265.286 12.9231C265.074 12.8681 264.597 12.9231 264.174 13.3077C263.962 13.5275 263.75 13.9121 263.697 14.2418V14.2418ZM264.703 14.2418C264.809 13.8022 264.915 13.4725 265.233 13.4725C265.392 13.4725 265.551 13.6374 265.551 13.967C265.551 14.022 265.498 14.0769 265.498 14.1868C265.445 14.2967 265.445 14.4066 265.392 14.5714C265.392 14.6264 265.339 14.6813 265.286 14.7912C265.18 14.9011 265.074 14.956 264.915 14.956C264.862 14.956 264.703 14.9561 264.703 14.7363C264.65 14.5714 264.65 14.4066 264.703 14.2418V14.2418ZM270 12.8681C269.47 12.9231 269.417 12.9231 268.941 12.978L268.888 13.033C268.517 13.7473 268.57 13.5824 268.305 14.1319V14.0769L268.252 12.8681L268.199 12.8132C267.669 12.9231 267.669 12.9231 267.193 12.978L267.14 13.033V13.0879C267.193 13.3077 267.193 13.5275 267.246 13.7473C267.246 13.967 267.299 14.1868 267.352 14.4066C267.405 14.7912 267.405 14.956 267.458 15.5055C267.14 16 267.034 16.1648 266.769 16.6044L266.557 16.9341L266.504 16.989H266.398H266.345L266.186 17.5385H266.769C267.087 17.5385 267.299 17.4286 267.458 17.1538L267.828 16.5494L267.881 16.4945C268.04 16 270 12.8681 270 12.8681V12.8681ZM263.697 20.1209H263.485L264.439 17.2088H264.756L264.862 16.8791V17.2637C264.862 17.4286 265.021 17.6484 265.445 17.6484H265.975L266.133 17.0989H265.975C265.869 17.0989 265.816 17.0989 265.816 17.044V16.6593H264.809C264.333 16.6593 263.856 16.6594 263.326 16.7143C263.167 16.7692 262.956 16.8242 262.85 16.9341L262.956 16.6044H262.055L261.896 17.2088L260.943 20.1758H260.784L260.625 20.7253H262.426L262.373 20.8901H263.273L263.326 20.7253H263.538L263.697 20.1209V20.1209ZM262.956 17.7033C262.85 17.7582 262.638 17.8132 262.532 17.8681L262.744 17.1538H263.432L263.273 17.7033H262.956V17.7033ZM262.956 18.8022C262.956 18.8022 262.744 18.8022 262.585 18.8571C262.479 18.9121 262.267 18.967 262.161 19.022L262.373 18.2527H263.061L262.956 18.8022V18.8022ZM262.532 20.1209H261.843L262.055 19.4615H262.744L262.532 20.1209ZM264.28 18.2527H265.339L265.18 18.7473H264.121L263.962 19.2418H264.915L264.227 20.1758L264.121 20.2857C264.068 20.3407 264.015 20.3407 263.962 20.3407H263.75L263.591 20.8901H264.227C264.544 20.8901 264.756 20.7802 264.915 20.5055L265.392 19.9011L265.498 20.5055C265.498 20.6154 265.551 20.6703 265.657 20.7253C265.71 20.7802 265.816 20.7802 265.869 20.8352H266.081H266.451L266.61 20.2308H266.504C266.451 20.2308 266.345 20.2308 266.292 20.1758C266.292 20.1209 266.239 20.1209 266.239 20.0659L266.133 19.4615H265.71L265.869 19.2967H266.928L267.087 18.8022H266.081L266.239 18.3077H267.246L267.405 17.7582H264.544L264.28 18.2527V18.2527ZM255.487 20.2308L255.699 19.4615H256.706L256.864 18.9121H255.858L256.017 18.4176H257.023L257.182 17.8681H254.746L254.587 18.4176H255.117L254.958 18.9121H254.375L254.216 19.5165H254.746L254.375 20.5604C254.322 20.6154 254.375 20.7253 254.428 20.7802C254.481 20.8352 254.534 20.8901 254.587 20.8901C254.64 20.8901 254.746 20.9451 254.799 20.9451H255.911L256.07 20.3407L255.54 20.3956C255.752 20.2857 255.487 20.2857 255.487 20.2308V20.2308ZM255.646 16.4945L255.434 16.9341C255.381 16.989 255.381 17.044 255.275 17.0989C255.222 17.0989 255.117 17.1538 255.064 17.1538H254.958L254.799 17.7033H255.222C255.381 17.7033 255.54 17.6483 255.699 17.5934C255.752 17.5385 255.805 17.5934 255.858 17.5385L256.017 17.4286H257.341L257.5 16.8242H256.494L256.653 16.4945H255.646V16.4945ZM257.659 20.2308C257.659 20.1758 257.659 20.1758 257.712 20.0659L258.083 18.9121H259.407H259.831C259.936 18.9121 260.042 18.8571 260.148 18.8022C260.254 18.7473 260.307 18.6923 260.36 18.6374C260.466 18.4725 260.519 18.3077 260.572 18.1429L261.049 16.6593H259.619C259.407 16.6593 259.195 16.7143 259.036 16.7692C258.877 16.8242 258.718 16.9341 258.559 17.0989L258.665 16.6593H257.765L256.6 20.4505C256.547 20.5604 256.547 20.6154 256.547 20.7802C256.547 20.8352 256.653 20.8901 256.706 20.9451C256.758 21 256.864 21 257.023 21H257.5H258.136L258.294 20.3407L257.712 20.3956C257.712 20.2857 257.659 20.2857 257.659 20.2308V20.2308ZM258.294 18.033H259.725L259.619 18.2527H259.46H258.242L258.294 18.033ZM258.559 17.1538H259.989L259.883 17.4835H259.142C258.824 17.5385 258.612 17.5934 258.4 17.8132L258.559 17.1538V17.1538ZM259.619 19.1868C259.619 19.2418 259.619 19.2418 259.566 19.2418H259.46H259.301V18.9121H258.506L258.453 20.5055C258.453 20.6154 258.453 20.6703 258.559 20.7253C258.612 20.7802 258.93 20.7802 259.248 20.7802H259.778L259.936 20.1758H259.301C259.301 20.1758 259.248 20.1758 259.248 20.1209C259.248 20.1209 259.195 20.1209 259.195 20.011V19.6264H259.672C259.831 19.6264 260.042 19.5714 260.148 19.4615C260.201 19.4066 260.254 19.2967 260.307 19.2418L260.36 18.8571H259.725L259.619 19.1868V19.1868Z" fill="#FEFEFE"/>
<defs>
<linearGradient id="paint0_linear_6_2" x1="90.162" y1="13.1" x2="100.5" y2="13.1" gradientUnits="userSpaceOnUse">
<stop stop-color="#00B4E6"/>
<stop offset="1" stop-color="#088CCB"/>
</linearGradient>
</defs>
</svg>
