<svg width="20" height="20" viewBox="0 0 20 20" fill="none" xmlns="http://www.w3.org/2000/svg">
<path fill-rule="evenodd" clip-rule="evenodd" d="M11.7107 10.6257L11.299 10.8065C10.994 10.9398 10.7973 11.2398 10.7973 11.5715C10.7973 12.0315 10.4248 12.4048 9.964 12.4048C9.504 12.4048 9.13067 12.0315 9.13067 11.5715C9.13067 10.5782 9.719 9.67817 10.629 9.27984L11.0407 9.099C11.549 8.87734 11.8757 8.3765 11.8757 7.824C11.8757 7.01317 11.2165 6.354 10.4073 6.354C9.5965 6.354 8.93734 7.01317 8.93734 7.824V8.01067C8.93734 8.47067 8.56484 8.844 8.104 8.844C7.64317 8.844 7.27067 8.47067 7.27067 8.01067V7.824C7.27067 6.09484 8.67734 4.68734 10.4073 4.68734C12.1365 4.68734 13.5423 6.09484 13.5423 7.824C13.5423 9.039 12.8232 10.139 11.7107 10.6257M9.99984 15.3123C9.48234 15.3123 9.06234 14.8932 9.06234 14.3748C9.06234 13.8573 9.48234 13.4373 9.99984 13.4373C10.5173 13.4373 10.9373 13.8573 10.9373 14.3748C10.9373 14.8932 10.5173 15.3123 9.99984 15.3123M9.99984 1.6665C5.39734 1.6665 1.6665 5.39817 1.6665 9.99984C1.6665 14.6015 5.39734 18.3332 9.99984 18.3332C14.6023 18.3332 18.3332 14.6015 18.3332 9.99984C18.3332 5.39817 14.6023 1.6665 9.99984 1.6665" fill="#476BF0"/>
</svg>
