<svg width="482" height="64" viewBox="0 0 482 64" fill="none" xmlns="http://www.w3.org/2000/svg">
<path d="M369.894 16H371.785C371.781 20.2813 371.793 24.5627 371.78 28.8427C371.152 28.8373 370.522 28.8427 369.894 28.8387V27.8733C369.426 28.384 368.84 28.816 368.152 28.9587C366.761 29.2787 365.218 28.8467 364.225 27.8173C362.516 26.0867 362.536 22.9773 364.256 21.2613C365.402 20.112 367.27 19.7133 368.762 20.3707C369.197 20.568 369.548 20.9 369.893 21.2213C369.898 19.4813 369.893 17.74 369.894 16ZM366.72 21.9373C366.117 22.112 365.581 22.5227 365.28 23.076C364.694 24.124 364.781 25.548 365.581 26.4613C366.425 27.4413 368.06 27.548 369.049 26.728C370.317 25.7093 370.338 23.5413 369.14 22.4613C368.494 21.8773 367.548 21.7093 366.72 21.9373ZM277.054 16.3387C278.093 16.34 279.133 16.3347 280.172 16.3413C281.365 19.292 282.58 22.2347 283.766 25.188C284.662 23.128 285.469 21.024 286.33 18.9467C286.674 18.08 287.049 17.228 287.373 16.3533C288.42 16.3213 289.466 16.3467 290.514 16.3387C290.51 20.5067 290.52 24.6747 290.51 28.8427C289.825 28.8387 289.141 28.8387 288.456 28.8413C288.44 25.4547 288.482 22.0707 288.434 18.6853C287.266 21.6773 286.042 24.6453 284.846 27.6253C284.136 27.6267 283.424 27.6267 282.714 27.6267C281.506 24.6707 280.309 21.712 279.097 18.7573C279.069 22.1187 279.094 25.4787 279.085 28.8413C278.409 28.8387 277.73 28.8387 277.054 28.8413C277.053 24.6733 277.054 20.5067 277.054 16.3387V16.3387ZM313.286 17.6933C313.918 17.6933 314.548 17.6933 315.18 17.6947C315.178 18.5587 315.178 19.424 315.18 20.2893C316.269 20.2907 317.361 20.288 318.453 20.2907C318.452 20.864 318.452 21.436 318.453 22.0107C317.361 22.012 316.27 22.012 315.181 22.0107C315.177 23.2413 315.174 24.476 315.181 25.7093C315.177 26.2867 315.4 26.9707 315.997 27.1813C316.773 27.4507 317.582 27.076 318.25 26.6907C318.504 27.1933 318.758 27.6973 319.006 28.2053C318.069 28.8427 316.913 29.1947 315.778 29.02C315.008 28.9347 314.238 28.5627 313.809 27.8987C313.368 27.2213 313.281 26.384 313.286 25.5947C313.288 24.4 313.288 23.2053 313.286 22.0107C312.721 22.012 312.158 22.012 311.594 22.0107V20.2893H313.286V17.6933ZM293.585 21.236C294.753 20.092 296.662 19.692 298.15 20.4173C298.561 20.624 298.902 20.936 299.21 21.2693C299.205 20.944 299.205 20.6173 299.205 20.2907C299.836 20.288 300.465 20.2893 301.096 20.2893C301.096 23.1387 301.097 25.9907 301.096 28.8413C300.465 28.8387 299.837 28.8413 299.206 28.8387C299.205 28.512 299.205 28.1827 299.21 27.8547C298.709 28.4267 298.038 28.88 297.276 28.9947C295.89 29.2493 294.392 28.7707 293.434 27.7293C291.814 25.968 291.86 22.916 293.585 21.236V21.236ZM296.068 21.9267C295.401 22.0973 294.818 22.5707 294.521 23.192C293.976 24.276 294.126 25.7293 295.006 26.5973C295.897 27.4613 297.43 27.504 298.378 26.708C299.566 25.7093 299.629 23.7053 298.574 22.592C297.944 21.9293 296.941 21.6893 296.068 21.9267ZM303.645 21.712C304.077 20.7347 305.149 20.2453 306.156 20.12C307.621 19.9493 309.168 20.1987 310.44 20.9667C310.173 21.4627 309.896 21.9507 309.632 22.4467C308.677 21.952 307.592 21.6187 306.506 21.752C306.076 21.804 305.605 22.0107 305.433 22.4373C305.292 22.7613 305.444 23.1627 305.765 23.3093C306.246 23.5507 306.801 23.5733 307.324 23.664C308.253 23.7907 309.233 23.992 309.962 24.6267C310.678 25.2387 310.786 26.3267 310.469 27.172C310.121 28.0733 309.23 28.64 308.324 28.8613C306.55 29.268 304.562 29.0213 303.057 27.9547C303.35 27.4733 303.636 26.988 303.948 26.52C304.944 27.3053 306.289 27.5253 307.52 27.3413C307.966 27.268 308.485 27.072 308.648 26.6067C308.798 26.2453 308.532 25.8547 308.2 25.7147C307.601 25.4267 306.92 25.4307 306.276 25.3213C305.464 25.2013 304.606 24.9653 304.016 24.3587C303.33 23.68 303.289 22.5627 303.645 21.712V21.712ZM321.032 21.3653C322.197 20.0507 324.238 19.7187 325.828 20.3947C326.905 20.856 327.666 21.8653 327.985 22.9733C328.222 23.7067 328.201 24.4853 328.177 25.248C326.072 25.2693 323.965 25.244 321.858 25.2613C321.994 26.0627 322.465 26.8413 323.238 27.168C324.446 27.6853 325.862 27.2813 326.856 26.4907C327.178 26.9373 327.486 27.3933 327.804 27.844C326.724 28.8147 325.206 29.152 323.789 29.036C322.924 28.9693 322.08 28.6453 321.406 28.0973C320.53 27.368 320.02 26.2573 319.926 25.132C319.792 23.8053 320.104 22.364 321.032 21.3653ZM323.096 21.9613C322.376 22.2947 322.008 23.068 321.872 23.812C323.338 23.82 324.804 23.8187 326.27 23.8133C326.176 23.2987 326.006 22.7747 325.641 22.3853C325.025 21.6733 323.916 21.584 323.096 21.9613V21.9613ZM332.164 21.1867C332.817 20.276 334.005 19.952 335.078 20.0773C335.401 20.1293 335.812 20.1267 336.058 20.344C335.936 20.96 335.766 21.5667 335.626 22.18C334.918 21.8547 334.062 21.728 333.329 22.0373C332.573 22.3667 332.19 23.2267 332.193 24.016C332.2 25.62 332.185 27.224 332.201 28.8293C331.569 28.852 330.936 28.8333 330.305 28.8413C330.3 25.9907 330.305 23.1387 330.304 20.2893H332.165C332.165 20.588 332.165 20.888 332.164 21.1867V21.1867ZM337.304 21.8413C338.821 19.6547 342.454 19.4093 344.209 21.432C343.79 21.856 343.401 22.3053 342.98 22.724C342.53 22.324 342.005 21.9693 341.398 21.88C340.521 21.7133 339.558 22.0507 339.012 22.7627C338.288 23.7053 338.24 25.092 338.841 26.1053C339.285 26.8707 340.18 27.3267 341.057 27.272C341.806 27.252 342.478 26.8533 343.033 26.3773C343.418 26.8187 343.818 27.2467 344.2 27.692C342.55 29.564 339.293 29.4893 337.628 27.68C336.21 26.1147 336.109 23.5613 337.304 21.8413V21.8413ZM346.094 21.82C346.9 20.6493 348.34 19.9707 349.754 20.0627C350.701 20.0733 351.604 20.5387 352.205 21.26C352.201 20.936 352.201 20.6133 352.202 20.2893H354.092C354.093 23.1387 354.09 25.988 354.092 28.8387C353.461 28.8387 352.83 28.8427 352.202 28.8373C352.201 28.5147 352.202 28.1907 352.202 27.8667C351.753 28.368 351.19 28.784 350.529 28.9427C349.142 29.2867 347.592 28.8773 346.58 27.864C344.997 26.3173 344.844 23.612 346.094 21.82V21.82ZM349.002 21.9453C347.708 22.3 347.018 23.764 347.245 25.0267C347.356 25.904 347.914 26.736 348.744 27.0773C349.608 27.432 350.682 27.3147 351.397 26.6907C352.63 25.652 352.63 23.5107 351.432 22.448C350.781 21.8653 349.829 21.7067 349.002 21.9453V21.9453ZM358.664 21.204C359.534 19.98 361.268 19.832 362.593 20.296C362.438 20.9187 362.281 21.54 362.145 22.1667C361.382 21.8627 360.462 21.6947 359.706 22.104C359.032 22.4693 358.717 23.2653 358.694 24.0013C358.685 25.6147 358.697 27.2267 358.69 28.8413C358.057 28.8333 357.425 28.8533 356.793 28.8267C356.813 25.9813 356.794 23.1347 356.802 20.2893H358.664V21.204ZM373.833 28.032C374.188 27.948 374.57 28.2693 374.5 28.6427C374.473 29.1467 373.693 29.3107 373.465 28.8653C373.241 28.5573 373.464 28.0827 373.833 28.032ZM373.716 28.244C373.429 28.4333 373.582 28.776 373.73 29.0013L374.061 28.9907C374.137 28.912 374.214 28.8347 374.294 28.76C374.493 28.4107 374.044 27.988 373.716 28.244V28.244ZM373.73 28.284C373.828 28.2987 374.025 28.3267 374.122 28.3427C374.397 28.6187 373.884 28.952 373.722 28.624C373.725 28.54 373.73 28.368 373.73 28.284V28.284ZM373.917 28.4413C373.98 28.508 373.98 28.508 373.917 28.4413V28.4413Z" fill="#ADB3C6"/>
<path d="M373.917 28.4413C373.98 28.508 373.98 28.508 373.917 28.4413V28.4413Z" fill="#ADB3C6" fill-opacity="0.062745"/>
<path d="M360.045 33.384C360.657 33.3813 361.267 33.3827 361.881 33.3827C361.885 37.5093 361.871 41.6373 361.886 45.7627C361.274 45.78 360.659 45.768 360.046 45.7707C360.045 45.4627 360.045 45.156 360.049 44.848C359.589 45.3547 359.005 45.7747 358.322 45.9053C356.942 46.204 355.419 45.7387 354.47 44.688C352.986 43.048 352.981 40.2947 354.447 38.64C355.551 37.3973 357.494 36.924 359.013 37.6453C359.41 37.8427 359.749 38.1387 360.047 38.464C360.045 36.7707 360.047 35.0773 360.045 33.384V33.384ZM357.134 39.092C356.538 39.2147 355.997 39.5867 355.67 40.1013C355.049 41.0813 355.086 42.448 355.793 43.376C356.574 44.4107 358.223 44.568 359.217 43.7507C360.451 42.7653 360.482 40.656 359.299 39.6187C358.723 39.0973 357.881 38.9253 357.134 39.092V39.092ZM277.55 34.7733C278.657 33.7693 280.226 33.4627 281.679 33.5427C283.074 33.5893 284.441 34.064 285.597 34.8387C285.25 35.372 284.945 35.932 284.562 36.4413C283.562 35.7453 282.333 35.3867 281.119 35.392C280.342 35.424 279.491 35.584 278.934 36.1693C278.477 36.6293 278.358 37.452 278.815 37.9533C279.261 38.4293 279.937 38.5587 280.547 38.6867C281.799 38.8907 283.127 38.9587 284.249 39.6147C285.082 40.088 285.703 40.9747 285.715 41.952C285.797 42.9173 285.462 43.9173 284.762 44.5987C283.734 45.6467 282.201 46.004 280.774 45.9933C279.093 45.9253 277.35 45.4627 276.042 44.3627C276.402 43.8467 276.759 43.3267 277.107 42.8C278.199 43.6773 279.609 44.1307 281.003 44.128C281.861 44.0947 282.813 43.8987 283.382 43.2C283.797 42.72 283.797 41.9027 283.277 41.4933C282.597 40.996 281.727 40.8747 280.913 40.7453C279.667 40.5947 278.306 40.412 277.354 39.508C276.066 38.2573 276.247 35.9507 277.55 34.7733V34.7733ZM332.671 35.1467C333.855 34.0373 335.498 33.4813 337.107 33.52C339.026 33.496 341.058 34.3573 342.071 36.048C341.519 36.408 340.973 36.78 340.422 37.1413C339.871 36.3587 339.054 35.756 338.118 35.5267C336.766 35.212 335.239 35.5107 334.198 36.4613C332.563 37.9533 332.394 40.6893 333.667 42.46C334.885 44.1547 337.458 44.6147 339.215 43.516C339.695 43.228 340.09 42.8227 340.418 42.3733C340.95 42.7667 341.489 43.1547 342.019 43.552C341.17 44.8293 339.738 45.6533 338.239 45.9013C336.518 46.188 334.657 45.8587 333.23 44.8227C331.639 43.7013 330.745 41.7413 330.779 39.8133C330.723 38.088 331.395 36.324 332.671 35.1467V35.1467ZM287.953 38.7533C289.243 37.112 291.91 36.8187 293.535 38.1213C294.762 39.116 295.171 40.812 294.997 42.3293C292.971 42.3293 290.943 42.3253 288.915 42.3307C289.049 43.1507 289.571 43.936 290.374 44.22C291.519 44.6373 292.806 44.2413 293.737 43.5173C294.043 43.9507 294.342 44.388 294.65 44.82C293.651 45.7187 292.266 46.048 290.949 45.984C290.07 45.936 289.193 45.6427 288.507 45.084C287.665 44.404 287.167 43.3573 287.059 42.2907C286.915 41.0587 287.169 39.7387 287.953 38.7533V38.7533ZM289.666 39.4453C289.243 39.8347 289.034 40.3933 288.923 40.944C290.337 40.948 291.751 40.9453 293.167 40.944C293.061 40.2613 292.745 39.5627 292.126 39.2C291.365 38.7747 290.323 38.8613 289.666 39.4453V39.4453ZM297.111 38.976C298.525 37.0213 301.694 36.7347 303.462 38.3573C303.542 38.464 303.798 38.5907 303.625 38.7333C303.278 39.1293 302.91 39.5027 302.549 39.884C302.001 39.3747 301.294 39 300.527 39.028C299.757 39.0507 298.986 39.4453 298.582 40.1147C298.018 41.0147 298.013 42.2373 298.555 43.148C299.034 43.9667 300.049 44.4067 300.975 44.2387C301.585 44.144 302.129 43.8053 302.589 43.408C302.974 43.82 303.345 44.2467 303.725 44.6653C302.53 46.06 300.399 46.3173 298.765 45.6293C297.585 45.1427 296.697 44.056 296.419 42.8147C296.131 41.516 296.302 40.0627 297.111 38.976V38.976ZM317.065 38.3733C317.933 37.2493 319.571 37.076 320.833 37.5533C320.686 38.1493 320.539 38.744 320.401 39.3427C319.643 39.0413 318.722 38.8813 317.989 39.324C317.351 39.7067 317.087 40.48 317.071 41.1893C317.062 42.7173 317.073 44.2453 317.067 45.772C316.463 45.7693 315.862 45.7747 315.261 45.768C315.263 43.0227 315.259 40.2773 315.263 37.5307H317.067C317.067 37.812 317.067 38.0933 317.065 38.3733V38.3733ZM322.125 38.9587C323.353 37.1213 326.23 36.7533 327.909 38.1667C329.102 39.1667 329.483 40.836 329.318 42.3293C327.29 42.3267 325.261 42.3267 323.233 42.3293C323.371 43.1067 323.829 43.8693 324.583 44.1733C325.749 44.6653 327.101 44.264 328.057 43.5133C328.355 43.9533 328.67 44.3827 328.967 44.824C327.931 45.744 326.493 46.0773 325.137 45.972C324.193 45.904 323.259 45.528 322.577 44.864C321.945 44.244 321.545 43.4027 321.411 42.5307C321.239 41.3093 321.399 39.9853 322.125 38.9587V38.9587ZM324.11 39.3467C323.607 39.7293 323.363 40.3413 323.243 40.9413C324.661 40.9493 326.078 40.944 327.498 40.944C327.379 40.396 327.195 39.8307 326.773 39.4373C326.058 38.7893 324.871 38.772 324.11 39.3467V39.3467ZM346.651 37.4133C347.817 37.1747 349.079 37.3493 350.101 37.976C351.078 38.5667 351.779 39.58 352.01 40.6973C352.238 41.8947 352.043 43.2053 351.309 44.2013C350.191 45.8027 347.962 46.3653 346.151 45.7547C344.981 45.3827 343.993 44.472 343.545 43.328C342.875 41.6773 343.275 39.6173 344.623 38.4253C345.195 37.9187 345.901 37.5667 346.651 37.4133V37.4133ZM347.09 39.0933C346.55 39.2067 346.042 39.4987 345.693 39.9307C344.949 40.84 344.907 42.2413 345.567 43.2067C346.333 44.3667 348.09 44.6027 349.191 43.7893C350.33 42.9853 350.547 41.2507 349.779 40.12C349.214 39.2587 348.082 38.8667 347.09 39.0933V39.0933ZM364.674 38.724C366.029 37.0333 368.861 36.804 370.434 38.3067C371.514 39.3213 371.853 40.9 371.694 42.3293C369.669 42.3267 367.643 42.3267 365.618 42.3293C365.737 43.1773 366.306 43.9773 367.138 44.244C368.269 44.6227 369.517 44.2253 370.431 43.52C370.738 43.9547 371.045 44.3907 371.345 44.832C370.281 45.7507 368.822 46.0907 367.445 45.9667C366.514 45.8813 365.589 45.5107 364.933 44.8333C364.215 44.1467 363.83 43.168 363.742 42.1907C363.621 40.9773 363.894 39.6827 364.674 38.724V38.724ZM366.661 39.2253C366.045 39.5773 365.746 40.276 365.617 40.944C367.033 40.9453 368.447 40.9467 369.863 40.944C369.759 40.3227 369.505 39.6947 368.989 39.3067C368.321 38.8253 367.366 38.8253 366.661 39.2253ZM305.245 37.532C305.855 37.5307 306.467 37.5307 307.079 37.5307C307.082 39.084 307.073 40.6387 307.083 42.192C307.087 42.908 307.355 43.708 308.037 44.048C308.79 44.3893 309.758 44.364 310.427 43.8453C310.95 43.4 311.074 42.6773 311.078 42.0267C311.095 40.5293 311.079 39.0307 311.086 37.5307H312.891C312.893 39.1987 312.894 40.8653 312.891 42.5307C312.879 43.4533 312.517 44.3827 311.834 45.0147C311.111 45.708 310.083 45.972 309.103 45.9933C308.149 45.984 307.154 45.7387 306.414 45.1067C305.631 44.4453 305.258 43.4067 305.257 42.3973C305.23 40.776 305.251 39.152 305.245 37.532V37.532ZM372.221 45.2453C372.538 45.2693 373.03 45.088 373.109 45.528C373.174 45.444 373.309 45.2773 373.374 45.1947C373.385 45.3027 373.406 45.5213 373.415 45.6293C373.214 45.66 373.015 45.7093 372.819 45.7627C372.826 45.596 372.831 45.4307 372.837 45.2653C372.455 45.252 372.61 45.6213 372.547 45.836C372.45 45.7027 372.465 45.5373 372.45 45.3853C372.394 45.3507 372.278 45.2813 372.221 45.2453V45.2453Z" fill="#ADB3C6"/>
<path d="M94.1298 48.75H65.6242C61.3739 48.7496 57.2345 47.3946 53.8067 44.8817C50.3788 42.3688 47.8411 38.8289 46.5618 34.7758C46.5307 34.67 46.5026 34.5688 46.4746 34.4645C46.4248 34.298 46.3828 34.1221 46.3408 33.9524C46.3221 33.873 46.3018 33.7968 46.2816 33.7143C46.0123 32.5654 45.8446 31.3951 45.7804 30.2168L45.7695 29.9989H78.6427C80.9535 29.993 83.2372 30.496 85.3317 31.4721C87.4262 32.4483 89.28 33.8736 90.7616 35.647C92.2431 37.4203 93.316 39.4981 93.9041 41.7329C94.4921 43.9676 94.5809 46.3044 94.164 48.5772L94.1298 48.75ZM46.2053 30.4161C46.2756 31.4952 46.4355 32.5666 46.6832 33.6193L46.7423 33.8575C46.7813 34.0225 46.8233 34.1921 46.8715 34.354C46.8995 34.4583 46.9276 34.5563 46.9556 34.6653C48.2013 38.6378 50.6852 42.1077 54.0441 44.5674C57.4031 47.0271 61.4609 48.3477 65.6242 48.336H93.7858C94.2167 45.8093 94.0052 43.2149 93.1708 40.7914C92.3363 38.368 90.9056 36.1933 89.0105 34.4676V34.4676C86.1876 31.861 82.485 30.4158 78.6427 30.4207H46.2053V30.4161Z" fill="#ADB3C6"/>
<path d="M63.1631 18.1045C60.2991 15.4641 56.546 13.9988 52.6506 14H20C20.0627 15.1647 20.2283 16.3215 20.495 17.457C20.5588 17.706 20.6148 17.9582 20.688 18.2041C20.7144 18.3053 20.7425 18.4049 20.772 18.5045C22.0381 22.516 24.5497 26.0196 27.9423 28.5067C31.3348 30.9938 35.4317 32.335 39.6383 32.3355H67.9665C68.4483 29.7507 68.2598 27.0855 67.4189 24.5942C66.578 22.1029 65.1128 19.8686 63.1631 18.1045V18.1045ZM44.9817 26.1982H43.075V22.6183H42.9365L41.8329 26.1905H40.4523L39.3488 22.6183H39.2103V26.1905H37.2864V20.145H39.2071C39.4451 20.1459 39.6765 20.2236 39.8666 20.3667C40.0568 20.5097 40.1957 20.7104 40.2624 20.9389L41.064 23.7172H41.201L42.0026 20.942C42.0694 20.7136 42.2082 20.5129 42.3984 20.3698C42.5886 20.2267 42.8199 20.149 43.0579 20.1482H44.9817V26.1982ZM47.7274 26.1982H45.8036V20.145H47.7274V26.1982ZM54.5604 26.1982H52.3626L51.2731 24.4098H50.4528V26.1998H48.5196V23.0168H54.6164C54.4913 23.3065 54.3071 23.567 54.0755 23.7814C53.8439 23.9958 53.5701 24.1595 53.2716 24.262L54.5604 26.1982ZM54.6445 22.6572H51.0754C50.5007 22.6573 49.9409 22.4742 49.4773 22.1344C49.0138 21.7946 48.6707 21.3158 48.4978 20.7676L48.4854 20.7272C48.4745 20.6929 48.4683 20.6587 48.4589 20.6244C48.424 20.4708 48.4011 20.3147 48.3905 20.1575H52.5525C53.0851 20.1568 53.5983 20.3575 53.9892 20.7194V20.7194C54.2543 20.9592 54.4537 21.2629 54.5684 21.6015C54.6831 21.9402 54.7093 22.3025 54.6445 22.6541V22.6572Z" fill="#ADB3C6"/>
<path d="M62.8227 42.4216L62.0444 40.7203H58.4552L57.6769 42.4216H57.21L60.0428 36.2983H60.4755L63.3083 42.4216H62.8227ZM60.2591 36.7902L58.6528 40.3079H61.8576L60.2591 36.7902Z" fill="#ADB3C6"/>
<path d="M66.8212 42.2656C66.5047 42.4419 66.1466 42.5295 65.7845 42.5193C65.4779 42.5209 65.1744 42.4572 64.8942 42.3325C64.6263 42.2124 64.3834 42.0429 64.1782 41.8329C63.9778 41.6213 63.8194 41.3735 63.7113 41.1029C63.597 40.8211 63.5388 40.5197 63.5401 40.2157V40.2001C63.539 39.8966 63.5972 39.5957 63.7113 39.3145C63.8198 39.0412 63.9781 38.7905 64.1782 38.5751C64.381 38.3599 64.6243 38.1869 64.8942 38.0661C65.1744 37.9414 65.4779 37.8777 65.7845 37.8794C66.1475 37.8736 66.5062 37.9592 66.8274 38.1284C66.9672 38.2033 67.0996 38.2914 67.2227 38.3915C67.3397 38.4887 67.4509 38.5927 67.5558 38.7027L67.2445 39.014C67.055 38.8177 66.8423 38.6452 66.611 38.5004C66.3561 38.3495 66.0635 38.2744 65.7674 38.2841C65.5235 38.281 65.2819 38.3309 65.0592 38.4304C64.846 38.5252 64.6544 38.6624 64.4957 38.8335C64.333 39.0076 64.2047 39.2109 64.1175 39.4327C64.0244 39.6697 63.9773 39.9222 63.979 40.1767V40.1954C63.9758 40.4511 64.0229 40.705 64.1175 40.9425C64.2071 41.1688 64.3398 41.3755 64.5082 41.5511C64.6715 41.7236 64.8672 41.8622 65.0841 41.9589C65.3089 42.0571 65.5517 42.1069 65.797 42.1052C66.0904 42.1098 66.3798 42.0368 66.6359 41.8936C66.8781 41.754 67.0962 41.5764 67.2819 41.3675L67.5776 41.6274C67.3615 41.8795 67.106 42.095 66.8212 42.2656V42.2656Z" fill="#ADB3C6"/>
<path d="M71.184 42.2659C70.8667 42.4414 70.5083 42.529 70.1458 42.5196C69.8387 42.5213 69.5347 42.4576 69.254 42.3328C68.8467 42.1503 68.5013 41.8533 68.2598 41.478C68.0183 41.1027 67.8911 40.6654 67.8936 40.2191V40.2035C67.8919 39.8996 67.9495 39.5982 68.0632 39.3163C68.1722 39.0438 68.3305 38.7937 68.5302 38.5786C68.7323 38.3633 68.9751 38.1903 69.2446 38.0696C69.5248 37.9434 69.8292 37.8796 70.1365 37.8828C70.3279 37.8809 70.5189 37.9033 70.7046 37.9497C70.8669 37.9918 71.0236 38.0529 71.1716 38.1318C71.3121 38.2056 71.4446 38.2938 71.5669 38.3949C71.6838 38.4922 71.795 38.5961 71.9 38.7062L71.5887 39.0175C71.3996 38.8208 71.1868 38.6482 70.9552 38.5038C70.7009 38.3527 70.4088 38.2771 70.1132 38.2859C69.8694 38.2842 69.6281 38.3341 69.4049 38.4322C69.1918 38.528 68.9993 38.6644 68.8384 38.8338C68.6769 39.0092 68.5492 39.2129 68.4617 39.4346C68.3678 39.6713 68.3207 39.924 68.3232 40.1786V40.1973C68.3199 40.4525 68.3669 40.7059 68.4617 40.9429C68.5515 41.1695 68.6841 41.3767 68.8524 41.553C69.0159 41.7259 69.2122 41.8645 69.4299 41.9608C69.6541 42.0588 69.8964 42.1087 70.1412 42.1071C70.4348 42.1121 70.7245 42.0385 70.9801 41.8939C71.223 41.7554 71.4418 41.5783 71.6276 41.3693L71.9233 41.6293C71.7119 41.879 71.4624 42.0939 71.184 42.2659V42.2659Z" fill="#ADB3C6"/>
<path d="M72.9063 41.1123C73.0039 41.3156 73.1367 41.5 73.2985 41.6571C73.4528 41.8052 73.6347 41.9216 73.8339 41.9995C74.0357 42.0765 74.2499 42.1155 74.4659 42.1147C74.7729 42.1243 75.0772 42.0552 75.3499 41.9139C75.5877 41.784 75.8036 41.6175 75.9897 41.4205L76.2854 41.6804C76.06 41.9222 75.7973 42.1261 75.5071 42.2844C75.1777 42.4531 74.8109 42.5355 74.441 42.5241C74.1566 42.5245 73.875 42.4678 73.6129 42.3575C73.3512 42.2507 73.114 42.0919 72.9156 41.8906C72.7129 41.6807 72.5542 41.4325 72.4486 41.1606C72.3276 40.86 72.2678 40.5382 72.2727 40.2142V40.1971C72.269 39.8902 72.3217 39.5852 72.4284 39.2974C72.5282 39.0292 72.6777 38.782 72.8689 38.569C73.0544 38.3612 73.28 38.1928 73.532 38.074C73.7905 37.9511 74.0737 37.8888 74.36 37.8919C74.6415 37.8846 74.921 37.941 75.1776 38.0569C75.4341 38.1728 75.6612 38.3452 75.8418 38.5612C76.0253 38.7775 76.1658 39.0269 76.2558 39.2959C76.3509 39.5915 76.3972 39.9006 76.3928 40.2111V40.3076C76.3951 40.333 76.3951 40.3585 76.3928 40.3839H72.7241C72.7361 40.6363 72.798 40.8839 72.9063 41.1123ZM75.9554 39.9948C75.9368 39.7744 75.8902 39.5574 75.8169 39.3488C75.7467 39.1476 75.6413 38.9605 75.5056 38.7963C75.3737 38.6363 75.2092 38.5062 75.0231 38.4149C74.8212 38.3226 74.6021 38.2737 74.38 38.2716C74.158 38.2694 73.938 38.314 73.7343 38.4025C73.5443 38.4866 73.3737 38.609 73.2331 38.762C73.0853 38.9251 72.9658 39.1119 72.8798 39.3146C72.7863 39.5307 72.7305 39.7613 72.7148 39.9963L75.9554 39.9948Z" fill="#ADB3C6"/>
<path d="M81.4273 41.1763C81.3113 41.4492 81.1443 41.6974 80.9354 41.9079C80.7376 42.107 80.5029 42.2656 80.2443 42.3748C79.8003 42.5619 79.3049 42.5883 78.8435 42.4495C78.6667 42.3952 78.4984 42.3161 78.3438 42.2145C78.1978 42.1179 78.0635 42.0045 77.9438 41.8767C77.829 41.7524 77.7248 41.6186 77.6325 41.4767V43.8223H77.2061V37.9902H77.6325V38.9816C77.7248 38.8353 77.8289 38.6969 77.9438 38.5676C78.065 38.4368 78.2008 38.3204 78.3485 38.2205C78.5027 38.119 78.6697 38.0384 78.845 37.9808C79.0396 37.9183 79.2431 37.8878 79.4474 37.8905C79.7145 37.8909 79.979 37.9438 80.2257 38.0462C80.4836 38.1494 80.7185 38.3029 80.9167 38.4976C81.1259 38.7048 81.293 38.9506 81.4086 39.2213C81.5358 39.5275 81.5988 39.8565 81.5938 40.1879V40.2066C81.6056 40.5379 81.5489 40.868 81.4273 41.1763V41.1763ZM81.1611 40.2113C81.1658 39.9414 81.1193 39.6731 81.0241 39.4206C80.9388 39.1956 80.8097 38.9898 80.6443 38.8151C80.4045 38.5669 80.0949 38.3975 79.7566 38.3294C79.4183 38.2613 79.0673 38.2977 78.7501 38.4338C78.5338 38.5241 78.3375 38.6563 78.1726 38.8229C77.9932 39.003 77.8518 39.2173 77.7569 39.4532C77.6619 39.689 77.6154 39.9415 77.6201 40.1957V40.2128C77.6183 40.4802 77.6713 40.745 77.7757 40.9911C77.8708 41.2154 78.0088 41.419 78.182 41.5903C78.3487 41.7546 78.5452 41.8856 78.761 41.9763C78.9741 42.0672 79.2033 42.1143 79.4349 42.1149C79.6691 42.117 79.9014 42.0725 80.1182 41.9841C80.3267 41.9 80.515 41.7727 80.6708 41.6106C80.8328 41.4391 80.9588 41.237 81.0413 41.016C81.1347 40.7613 81.1811 40.4918 81.1782 40.2206L81.1611 40.2113Z" fill="#ADB3C6"/>
<path d="M84.1805 42.4588C84.0567 42.4849 83.9304 42.498 83.8039 42.4977C83.6389 42.4978 83.4749 42.4742 83.3167 42.4277C83.168 42.3838 83.0313 42.3066 82.9169 42.202C82.8026 42.0973 82.7136 41.968 82.6567 41.8238C82.5894 41.6508 82.5571 41.4661 82.5618 41.2806V38.3824H81.9189V37.9917H82.5618V36.5737H82.9836V37.9901H84.5401V38.3746H82.9836V41.2261C82.9836 41.5374 83.0661 41.7646 83.2311 41.8923C83.417 42.0255 83.6423 42.0924 83.8708 42.0822C83.9754 42.0829 84.0799 42.072 84.1821 42.0495C84.2986 42.0221 84.4123 41.9836 84.5214 41.9343V42.3343C84.4121 42.3868 84.2979 42.4285 84.1805 42.4588V42.4588Z" fill="#ADB3C6"/>
<path d="M152.862 48.57L141.422 17.35L182.712 15L188.362 27.57C187.712 28.46 185.802 31.11 183.992 33.7V25.36H178.872V36.55C178.223 36.0866 177.484 35.7662 176.702 35.61V35.05C176.702 35.05 176.702 34.99 176.632 35.05C176.562 35.11 176.082 35.49 173.632 35.73C173.211 35.789 172.783 35.789 172.362 35.73C168.922 35.15 168.752 32.62 168.752 32.62C168.752 32.62 168.752 32.51 168.752 32.47V31.47C168.752 31.42 168.752 31.36 168.752 31.31C168.752 31.26 168.982 28.61 172.362 28.31H173.622C174.572 28.4539 175.488 28.7726 176.322 29.25H176.392V25.86C176.39 25.8374 176.383 25.8156 176.37 25.7964C176.358 25.7772 176.342 25.7613 176.322 25.75C175.47 25.3591 174.539 25.1676 173.602 25.19C172.807 25.1241 172.007 25.1241 171.212 25.19C163.762 25.78 163.482 31.19 163.482 31.42V32.73C163.482 32.89 163.482 38.4 171.212 38.89C171.962 38.89 173.442 38.89 173.602 38.89C173.818 39.8848 174.236 40.8244 174.832 41.65L152.862 48.57ZM154.442 38.65V34.77C154.442 34.7599 154.444 34.7499 154.448 34.7407C154.452 34.7315 154.458 34.7233 154.466 34.7166C154.473 34.71 154.482 34.7051 154.492 34.7022C154.502 34.6993 154.512 34.6986 154.522 34.7C154.522 34.7 162.522 35.27 162.522 29.92C162.522 25.7 157.522 25.24 155.882 25.32H149.422C149.401 25.32 149.38 25.3284 149.365 25.3434C149.35 25.3584 149.342 25.3788 149.342 25.4V38.65C149.34 38.6609 149.341 38.6721 149.344 38.6826C149.348 38.693 149.354 38.7026 149.362 38.7104C149.369 38.7182 149.379 38.724 149.389 38.7274C149.4 38.7308 149.411 38.7318 149.422 38.73H154.422C154.433 38.7205 154.441 38.7077 154.445 38.6933C154.448 38.6789 154.447 38.6638 154.442 38.65ZM189.342 37.03C189.912 35.9806 190.564 34.9775 191.292 34.03L192.222 36.1L189.342 37.03ZM199.852 35.25C199.614 35.1285 199.416 34.9411 199.282 34.71C199.108 34.4063 199.025 34.0594 199.042 33.71C199.027 33.489 199.057 33.2673 199.129 33.0578C199.201 32.8483 199.314 32.6554 199.462 32.4901C199.622 32.341 199.812 32.2259 200.018 32.152C200.224 32.0781 200.443 32.0468 200.662 32.06C201.014 32.03 201.366 32.1179 201.662 32.31C201.91 32.4985 202.092 32.7612 202.182 33.06L201.302 33.25C201.283 33.1741 201.249 33.1027 201.202 33.04C201.153 32.9655 201.083 32.9065 201.002 32.87C200.919 32.8258 200.826 32.8018 200.732 32.8C200.628 32.7969 200.526 32.8211 200.434 32.8703C200.343 32.9195 200.266 32.9918 200.212 33.08C200.109 33.2732 200.064 33.4919 200.082 33.71C200.054 33.9643 200.11 34.2207 200.242 34.44C200.297 34.5081 200.367 34.5618 200.447 34.5967C200.527 34.6315 200.615 34.6464 200.702 34.64C200.779 34.6472 200.858 34.6365 200.93 34.6088C201.003 34.581 201.069 34.537 201.122 34.48C201.234 34.3483 201.31 34.1898 201.342 34.02L202.212 34.28C202.167 34.5005 202.075 34.7087 201.942 34.89C201.819 35.0507 201.657 35.178 201.472 35.26C201.246 35.3508 201.005 35.3951 200.762 35.39C200.455 35.4227 200.144 35.3886 199.852 35.29V35.25ZM203.332 35.25C203.085 35.1333 202.882 34.9406 202.752 34.7C202.594 34.4162 202.518 34.0944 202.532 33.77C202.51 33.5462 202.538 33.3205 202.614 33.1088C202.69 32.8971 202.811 32.7047 202.97 32.5453C203.128 32.3858 203.32 32.2632 203.531 32.1863C203.742 32.1093 203.968 32.0799 204.192 32.1C204.417 32.0854 204.642 32.1159 204.855 32.1898C205.068 32.2636 205.264 32.3793 205.432 32.53C205.582 32.6921 205.697 32.8829 205.771 33.0909C205.845 33.2989 205.876 33.5198 205.862 33.7401C205.874 34.0608 205.809 34.3798 205.672 34.67C205.552 34.9038 205.363 35.0955 205.132 35.22C204.856 35.369 204.545 35.4415 204.232 35.4301C203.923 35.4464 203.614 35.3881 203.332 35.26V35.25ZM220.742 35.37L220.592 34.84H219.462L219.302 35.37H218.302L219.502 32.15H220.582L221.792 35.37H220.742ZM222.112 35.37V32.15H223.002L224.212 33.9301V32.15H225.142V35.37H224.212L223.002 33.65V35.42L222.112 35.37ZM206.382 35.37V32.15H207.692L208.192 34.15L208.692 32.15H210.002V35.37H209.182V32.92L208.552 35.37H207.822L207.192 32.92V35.37H206.382ZM213.872 35.37V32.15H214.872V34.58H216.422V35.37H213.872ZM216.872 35.37V32.15H217.872V35.37H216.872ZM226.592 35.37V32.95H225.592V32.15H228.592V32.95H227.592V35.37H226.592ZM210.592 35.37V32.15H212.242C212.535 32.1289 212.826 32.2221 213.052 32.41C213.143 32.5075 213.214 32.6223 213.261 32.7477C213.307 32.8731 213.328 33.0065 213.322 33.14C213.329 33.2799 213.308 33.4199 213.258 33.5508C213.208 33.6818 213.131 33.8007 213.032 33.9C212.776 34.0982 212.455 34.1944 212.132 34.17H211.592V35.37H210.592ZM204.652 34.47C204.791 34.246 204.851 33.982 204.822 33.72C204.841 33.4857 204.778 33.252 204.642 33.06C204.579 32.99 204.502 32.9348 204.416 32.8985C204.329 32.8622 204.236 32.8456 204.142 32.85C204.051 32.8465 203.961 32.8635 203.878 32.8998C203.795 32.9362 203.721 32.991 203.662 33.06C203.523 33.2692 203.459 33.5197 203.482 33.77C203.461 34.017 203.524 34.264 203.662 34.47C203.723 34.5393 203.798 34.594 203.883 34.6304C203.968 34.6667 204.06 34.6837 204.152 34.6801C204.25 34.6921 204.349 34.6801 204.441 34.6453C204.534 34.6104 204.616 34.5538 204.682 34.48L204.652 34.47ZM220.352 34.14L219.992 32.9901L219.642 34.14H220.352ZM212.242 33.4301C212.277 33.3964 212.305 33.356 212.323 33.3113C212.342 33.2666 212.352 33.2186 212.352 33.17C212.354 33.1222 212.346 33.0744 212.329 33.0297C212.312 32.9849 212.285 32.9442 212.252 32.91C212.143 32.8292 212.007 32.7934 211.872 32.81H211.592V33.52H211.832C211.983 33.5414 212.138 33.5134 212.272 33.44L212.242 33.4301ZM155.692 31.76H154.322V28.26H155.542C155.542 28.26 157.322 28.34 157.462 29.55C157.487 29.7894 157.487 30.0307 157.462 30.27C157.377 30.6765 157.16 31.0436 156.846 31.3148C156.531 31.5859 156.136 31.7459 155.722 31.77L155.692 31.76ZM220.772 29.5C220.087 28.8038 219.675 27.8846 219.612 26.91L222.672 26.72C222.704 27.1284 222.841 27.5214 223.072 27.86C223.241 28.0703 223.459 28.2372 223.706 28.3467C223.953 28.4563 224.222 28.5054 224.492 28.4901C224.872 28.5166 225.25 28.4027 225.552 28.17C225.667 28.079 225.761 27.9637 225.827 27.8324C225.892 27.701 225.928 27.5568 225.932 27.41C225.925 27.2716 225.889 27.1362 225.828 27.0122C225.766 26.8883 225.678 26.7785 225.572 26.69C225.071 26.3749 224.508 26.1704 223.922 26.09C222.839 25.9051 221.812 25.4741 220.922 24.83C220.63 24.586 220.397 24.2797 220.239 23.9335C220.082 23.5874 220.004 23.2102 220.012 22.83C220.016 22.2897 220.176 21.7621 220.472 21.31C220.821 20.8101 221.307 20.4213 221.872 20.19C222.693 19.8849 223.567 19.7456 224.442 19.78C225.495 19.7207 226.541 19.9822 227.442 20.53C227.807 20.8106 228.108 21.1666 228.324 21.5739C228.54 21.9811 228.665 22.43 228.692 22.89L225.692 23.06C225.648 22.676 225.467 22.3208 225.182 22.06C224.874 21.8307 224.495 21.7174 224.112 21.7401C223.812 21.7191 223.515 21.804 223.272 21.98C223.182 22.0478 223.109 22.1355 223.059 22.2361C223.009 22.3367 222.982 22.4475 222.982 22.56C222.984 22.6474 223.006 22.7331 223.046 22.8109C223.086 22.8887 223.143 22.9567 223.212 23.01C223.541 23.2209 223.914 23.3543 224.302 23.4C225.334 23.5887 226.341 23.8974 227.302 24.32C227.844 24.5681 228.302 24.9675 228.622 25.47C228.902 25.9344 229.048 26.4676 229.042 27.01C229.048 27.6678 228.856 28.3122 228.492 28.86C228.115 29.4344 227.575 29.8835 226.942 30.15C226.143 30.4633 225.289 30.6096 224.432 30.58C222.712 30.54 221.482 30.2 220.802 29.51L220.772 29.5ZM210.502 29.5C209.809 28.8049 209.397 27.8796 209.342 26.9L212.402 26.71C212.438 27.1174 212.576 27.5092 212.802 27.85C212.973 28.0591 213.19 28.225 213.437 28.3345C213.683 28.4439 213.952 28.4938 214.222 28.48C214.602 28.5066 214.98 28.3927 215.282 28.16C215.397 28.069 215.491 27.9537 215.557 27.8224C215.622 27.691 215.658 27.5468 215.662 27.4C215.655 27.2616 215.619 27.1261 215.557 27.0022C215.496 26.8783 215.408 26.7686 215.302 26.6801C214.8 26.3669 214.238 26.1624 213.652 26.08C212.568 25.8972 211.541 25.4659 210.652 24.82C210.36 24.576 210.127 24.2697 209.969 23.9235C209.812 23.5774 209.734 23.2002 209.742 22.82C209.741 22.279 209.901 21.7499 210.202 21.3C210.551 20.7954 211.041 20.4057 211.612 20.1801C212.429 19.8747 213.3 19.7353 214.172 19.77C215.225 19.7094 216.271 19.971 217.172 20.52C217.537 20.8006 217.838 21.1566 218.054 21.5638C218.27 21.9711 218.395 22.42 218.422 22.88L215.422 23.05C215.412 22.8565 215.363 22.6669 215.277 22.4933C215.191 22.3196 215.07 22.1656 214.922 22.0408C214.773 21.916 214.601 21.8231 214.415 21.7679C214.229 21.7127 214.034 21.6964 213.842 21.72C213.542 21.6926 213.242 21.7782 213.002 21.96C212.913 22.0263 212.84 22.1122 212.79 22.2111C212.74 22.3099 212.713 22.4191 212.712 22.53C212.714 22.6174 212.736 22.7031 212.776 22.7809C212.816 22.8587 212.873 22.9268 212.942 22.98C213.268 23.1895 213.637 23.3228 214.022 23.37C215.054 23.5582 216.061 23.867 217.022 24.29C217.562 24.5409 218.019 24.9396 218.342 25.44C218.623 25.9075 218.769 26.4444 218.762 26.9901C218.767 27.6447 218.576 28.2858 218.212 28.83C217.835 29.4044 217.295 29.8534 216.662 30.12C215.863 30.4332 215.009 30.5796 214.152 30.55C212.442 30.54 211.212 30.2 210.532 29.52L210.502 29.5ZM198.902 30.32V19.9301H203.682C204.46 19.903 205.235 20.0322 205.962 20.31C206.527 20.5545 207.022 20.936 207.402 21.42C207.792 21.9092 208.074 22.4747 208.232 23.08C208.405 23.7327 208.492 24.4049 208.492 25.08C208.529 25.9604 208.397 26.8396 208.102 27.67C207.869 28.2569 207.51 28.7859 207.052 29.22C206.642 29.6067 206.144 29.8881 205.602 30.04C204.977 30.2163 204.331 30.3104 203.682 30.32H198.902ZM204.342 27.7401C204.648 27.5645 204.884 27.2891 205.012 26.96C205.202 26.3765 205.284 25.763 205.252 25.15C205.335 24.354 205.145 23.5533 204.712 22.88C204.471 22.6581 204.187 22.4891 203.877 22.384C203.567 22.279 203.238 22.2401 202.912 22.27H202.122V27.96H202.902C203.401 28.0044 203.903 27.936 204.372 27.76L204.342 27.7401ZM181.402 24.07C181.989 24.0445 182.556 23.8472 183.032 23.5024C183.508 23.1577 183.872 22.6808 184.079 22.1309C184.286 21.5809 184.328 20.9822 184.198 20.4091C184.067 19.836 183.772 19.3137 183.348 18.907C182.923 18.5004 182.389 18.2273 181.811 18.1217C181.233 18.0161 180.636 18.0826 180.096 18.313C179.555 18.5434 179.094 18.9275 178.77 19.4176C178.446 19.9077 178.272 20.4823 178.272 21.07C178.276 21.4774 178.361 21.88 178.523 22.2539C178.685 22.6278 178.92 22.9655 179.214 23.247C179.509 23.5285 179.857 23.7481 180.238 23.8929C180.619 24.0377 181.025 24.1047 181.432 24.09L181.402 24.07Z" fill="#ADB3C6"/>
<path d="M179.332 44.57C177.761 43.0139 176.366 41.2903 175.172 39.4301C175.122 39.3188 175.088 39.2009 175.072 39.08C175.03 38.8315 175.051 38.5766 175.131 38.3377C175.211 38.0988 175.349 37.8833 175.532 37.71C175.926 37.3797 176.41 37.1742 176.922 37.12C177.078 37.1126 177.234 37.1364 177.382 37.19C178.862 38.1297 180.191 39.2897 181.322 40.63C181.322 40.63 181.532 40.68 181.572 40.63C184.722 35.85 190.692 23.81 196.442 23.97C197.392 23.97 197.392 24.27 197.392 24.27C197.402 24.3094 197.402 24.3507 197.392 24.39C197.359 24.4371 197.319 24.4778 197.272 24.51C190.812 29.11 184.692 44.06 182.872 45.01C182.479 45.1961 182.045 45.2787 181.612 45.25C181.201 45.2996 180.785 45.2601 180.392 45.1341C179.998 45.0081 179.637 44.7986 179.332 44.52V44.57Z" fill="#ADB3C6"/>
<path d="M444.125 14.106C445.234 13.8975 446.38 13.9978 447.436 14.3959C447.309 15.0296 447.167 15.6633 447.032 16.297C446.3 15.9944 445.497 15.8059 444.708 15.9088C444.391 15.9564 444.043 16.0673 443.849 16.3477C443.802 16.4091 443.77 16.4808 443.755 16.5569C443.74 16.6331 443.743 16.7117 443.764 16.7865C443.845 16.996 443.996 17.1708 444.192 17.2807C444.519 17.5009 444.876 17.6657 445.221 17.8542C445.796 18.1711 446.379 18.5386 446.722 19.1216C447.051 19.6586 447.062 20.3272 446.924 20.9276C446.828 21.302 446.655 21.6525 446.417 21.957C446.179 22.2615 445.88 22.5135 445.54 22.6971C444.662 23.1977 443.62 23.3308 442.62 23.288C441.851 23.2596 441.091 23.1055 440.372 22.8318C440.483 22.1648 440.654 21.5074 440.784 20.8436C441.258 21.0867 441.766 21.2581 442.291 21.3521C442.72 21.4279 443.158 21.4348 443.59 21.3727C443.908 21.3333 444.203 21.1837 444.423 20.9497C444.515 20.8361 444.566 20.6951 444.569 20.549C444.571 20.4029 444.525 20.2602 444.437 20.1434C444.208 19.8931 443.93 19.6926 443.62 19.5541C442.986 19.2372 442.352 18.9204 441.877 18.3849C441.664 18.1575 441.505 17.8842 441.413 17.5861C441.321 17.2879 441.298 16.9727 441.346 16.6645C441.422 16.0239 441.732 15.4339 442.216 15.0074C442.759 14.5403 443.419 14.2288 444.125 14.106V14.106Z" fill="#ADB3C6"/>
<path d="M426.48 14.1583C427.816 14.1583 429.153 14.1583 430.49 14.1583C430.738 14.1691 430.974 14.2641 431.16 14.4276C431.349 14.592 431.476 14.8153 431.521 15.0613C431.848 16.7827 432.172 18.5069 432.494 20.2337C432.535 20.1738 432.57 20.1095 432.597 20.042C433.364 18.0791 434.151 16.1242 434.918 14.1583H437.375C436.127 17.1439 434.876 20.1275 433.624 23.109C433.601 23.1818 433.505 23.1517 433.449 23.1612H431.133C430.51 20.7438 429.885 18.3236 429.259 15.9009C429.22 15.6747 429.104 15.4689 428.931 15.3179C428.681 15.1509 428.41 15.0162 428.126 14.9171C427.579 14.7131 427.015 14.5526 426.442 14.4371C426.452 14.3468 426.463 14.2565 426.48 14.1583Z" fill="#ADB3C6"/>
<path d="M438.361 14.1583H440.685C440.659 14.3487 440.623 14.5376 440.575 14.7238C439.973 17.5342 439.371 20.3445 438.769 23.1549H436.45C436.471 22.9797 436.504 22.806 436.548 22.6353C437.152 19.8123 437.763 16.9876 438.361 14.1583Z" fill="#ADB3C6"/>
<path d="M450.487 19.9596C451.121 19.9596 451.754 19.9596 452.388 19.9596C452.185 18.838 451.922 17.729 451.707 16.6106C451.274 17.729 450.889 18.8554 450.479 19.9675L450.487 19.9596ZM450.36 14.8506C450.433 14.6549 450.562 14.4851 450.731 14.3628C450.901 14.2404 451.102 14.1709 451.311 14.163C451.986 14.1583 452.664 14.1583 453.35 14.1583C453.508 14.8062 453.627 15.4636 453.768 16.1147C454.261 18.4625 454.752 20.8103 455.24 23.1581H453.074C452.988 22.7097 452.882 22.2678 452.8 21.8194C451.803 21.8194 450.807 21.8194 449.812 21.8194C449.654 22.2662 449.495 22.705 449.337 23.1517C448.521 23.1628 447.705 23.1517 446.888 23.1517C448.03 20.3762 449.207 17.6071 450.362 14.8442L450.36 14.8506Z" fill="#ADB3C6"/>
<path d="M449.806 36.0389C449.806 37.5534 449.806 39.0695 449.806 40.5856C450.72 40.5761 451.633 40.5856 452.549 40.5856V39.8996C451.915 39.8996 451.27 39.8996 450.632 39.8996V38.5752H452.338V37.8972H450.636V36.7328H452.442C452.442 36.5063 452.442 36.2781 452.442 36.05L449.806 36.0389ZM441.602 36.0389V38.9047C441.615 39.2971 441.73 39.6793 441.936 40.0137C442.044 40.169 442.181 40.3014 442.341 40.4032C442.5 40.5049 442.678 40.5739 442.864 40.6062C443.265 40.6871 443.681 40.6631 444.07 40.5364C444.43 40.4143 444.729 40.157 444.903 39.8188C445.102 39.3947 445.187 38.9264 445.15 38.4596V36.0358H444.32V38.8065C444.315 39.0983 444.234 39.3839 444.086 39.635C443.769 40.085 443.005 40.1103 442.685 39.6572C442.465 39.3404 442.426 38.9348 442.429 38.561V36.0389H441.603H441.602ZM434.314 36.0389C434.314 37.555 434.3 39.0711 434.314 40.5856C435.221 40.5856 436.126 40.5856 437.031 40.5856C437.049 40.3546 437.049 40.1226 437.031 39.8917C436.398 39.8996 435.764 39.8917 435.13 39.8917V38.5673H436.848V37.8877H435.149V36.7249H436.946V36.0358H434.319L434.314 36.0389ZM446.02 36.0991C446.014 37.5946 446.014 39.0901 446.02 40.5856C446.293 40.5856 446.563 40.5856 446.836 40.5856C446.86 39.9614 446.836 39.3372 446.845 38.7146C447.119 38.7146 447.411 38.6798 447.664 38.8018C447.918 38.9237 448.003 39.2152 448.067 39.4671C448.143 39.843 448.244 40.2135 448.369 40.5761C448.653 40.5871 448.937 40.5761 449.22 40.584C449.092 40.1452 448.976 39.6968 448.864 39.2517C448.777 38.9158 448.593 38.5657 448.249 38.4342C448.548 38.3144 448.796 38.095 448.952 37.8132C449.079 37.5612 449.114 37.273 449.05 36.9982C448.987 36.7234 448.83 36.4794 448.605 36.3082C448.279 36.1086 447.903 36.0049 447.52 36.0088C447.019 35.9913 446.517 36.0215 446.022 36.0991H446.02ZM438.72 36.2211C438.409 36.3677 438.137 36.5864 437.927 36.8592C437.717 37.132 437.575 37.4509 437.513 37.7895C437.381 38.4108 437.471 39.0585 437.766 39.6208C437.932 39.8923 438.157 40.1227 438.425 40.295C438.692 40.4673 438.995 40.5769 439.311 40.6157C439.868 40.6968 440.437 40.6391 440.966 40.4477C440.909 40.2275 440.883 40.0089 440.819 39.7966C440.328 39.9767 439.793 39.995 439.29 39.8489C439.113 39.7869 438.951 39.6881 438.815 39.559C438.678 39.4287 438.57 39.2711 438.498 39.0964C438.304 38.6091 438.298 38.0668 438.482 37.5756C438.548 37.3984 438.65 37.2367 438.781 37.1004C438.912 36.9641 439.07 36.8563 439.244 36.7835C439.758 36.5962 440.324 36.6098 440.829 36.8215C440.906 36.6013 440.947 36.3827 441.012 36.1625C440.856 36.0897 440.689 36.0416 440.518 36.0199C439.914 35.9035 439.289 35.9743 438.726 36.2227L438.72 36.2211ZM430.983 36.5379C430.824 36.7482 430.739 37.0053 430.742 37.2689C430.746 37.5324 430.836 37.7875 431 37.9938C431.273 38.28 431.616 38.4888 431.995 38.599C432.249 38.6717 432.479 38.8093 432.664 38.9982C432.717 39.0729 432.753 39.1588 432.768 39.2494C432.784 39.3399 432.778 39.4328 432.752 39.521C432.709 39.633 432.636 39.731 432.54 39.8042C432.445 39.8773 432.332 39.923 432.212 39.936C431.743 39.9882 431.27 39.8965 430.855 39.6731C430.805 39.9091 430.714 40.1356 430.687 40.3764C431.27 40.6412 431.925 40.7074 432.55 40.565C432.76 40.5217 432.958 40.4298 433.127 40.2967C433.297 40.1636 433.432 39.9929 433.524 39.7982C433.624 39.5707 433.655 39.3187 433.613 39.0736C433.571 38.8285 433.458 38.6012 433.288 38.42C432.971 38.092 432.527 37.9637 432.12 37.7863C431.891 37.677 431.612 37.5265 431.594 37.2382C431.587 37.1051 431.629 36.974 431.712 36.8699C431.796 36.7659 431.914 36.6962 432.046 36.6742C432.456 36.6021 432.879 36.6637 433.251 36.85C433.323 36.6314 433.385 36.4001 433.449 36.1752C433.004 35.9849 432.516 35.9181 432.036 35.9819C431.628 36.0196 431.251 36.2165 430.986 36.53L430.983 36.5379ZM421.508 28.5821C434.869 28.5768 448.229 28.5742 461.588 28.5742V48.6C448.227 48.6 434.867 48.6 421.508 48.6C421.508 41.9295 421.508 35.2569 421.508 28.5821Z" fill="#ADB3C6"/>
<path d="M446.855 36.6665C447.219 36.6237 447.623 36.5746 447.951 36.7711C448.04 36.8355 448.113 36.9193 448.164 37.0162C448.216 37.1131 448.244 37.2205 448.248 37.3301C448.251 37.4397 448.23 37.5486 448.185 37.6486C448.14 37.7486 448.072 37.8369 447.988 37.9069C447.671 38.1604 447.232 38.0907 446.854 38.1049C446.855 37.6297 446.855 37.1465 446.855 36.6665Z" fill="#ADB3C6"/>
</svg>
