<svg xmlns="http://www.w3.org/2000/svg" width="24" height="24" viewBox="0 0 24 24">
    <g fill="none" fill-rule="evenodd">
        <g fill="#31A64A">
            <g>
                <path d="M17.459 9.955l-6.46 6.5c-.187.188-.442.295-.709.295-.267 0-.521-.106-.709-.295l-3.04-3.06c-.39-.39-.388-1.023.004-1.413.392-.39 1.024-.387 1.414.004l2.331 2.345 5.751-5.786c.39-.391 1.022-.394 1.414-.005.392.39.394 1.023.004 1.415M12 2C6.478 2 2 6.477 2 12s4.478 10 10 10 10-4.477 10-10S17.522 2 12 2" transform="translate(-812 -981) translate(812 981)"/>
            </g>
        </g>
    </g>
</svg>
